<svg width="95" height="54" viewBox="0 0 95 54" fill="none" xmlns="http://www.w3.org/2000/svg">
<g filter="url(#filter0_i_29_12835)">
<rect x="12.7188" width="82.2814" height="45.2276" rx="22.6138" fill="#FFCDCE"/>
</g>
<g filter="url(#filter1_d_29_12835)">
<rect x="4" width="56.1258" height="45.2276" rx="22.6138" fill="#9B6A70"/>
</g>
<path d="M31.704 9.2634C30.6835 10.2144 29.8649 11.3611 29.2972 12.6353C28.7294 13.9095 28.4242 15.2849 28.3996 16.6797C28.375 18.0744 28.6315 19.4598 29.1539 20.7532C29.6764 22.0466 30.454 23.2215 31.4403 24.2079C32.4267 25.1942 33.6016 25.9718 34.895 26.4942C36.1884 27.0167 37.5738 27.2732 38.9685 27.2486C40.3633 27.224 41.7387 26.9187 43.0129 26.351C44.2871 25.7833 45.4338 24.9647 46.3848 23.9442C45.9444 31.1946 39.9252 36.9367 32.5641 36.9367C24.9134 36.9367 18.7129 30.7361 18.7129 23.0869C18.7129 15.7257 24.455 9.70659 31.704 9.2634Z" fill="#FFCDCE"/>
<defs>
<filter id="filter0_i_29_12835" x="12.7188" y="0" width="82.2812" height="49.2275" filterUnits="userSpaceOnUse" color-interpolation-filters="sRGB">
<feFlood flood-opacity="0" result="BackgroundImageFix"/>
<feBlend mode="normal" in="SourceGraphic" in2="BackgroundImageFix" result="shape"/>
<feColorMatrix in="SourceAlpha" type="matrix" values="0 0 0 0 0 0 0 0 0 0 0 0 0 0 0 0 0 0 127 0" result="hardAlpha"/>
<feOffset dy="4"/>
<feGaussianBlur stdDeviation="2"/>
<feComposite in2="hardAlpha" operator="arithmetic" k2="-1" k3="1"/>
<feColorMatrix type="matrix" values="0 0 0 0 0 0 0 0 0 0 0 0 0 0 0 0 0 0 0.25 0"/>
<feBlend mode="normal" in2="shape" result="effect1_innerShadow_29_12835"/>
</filter>
<filter id="filter1_d_29_12835" x="0" y="0" width="64.126" height="53.2275" filterUnits="userSpaceOnUse" color-interpolation-filters="sRGB">
<feFlood flood-opacity="0" result="BackgroundImageFix"/>
<feColorMatrix in="SourceAlpha" type="matrix" values="0 0 0 0 0 0 0 0 0 0 0 0 0 0 0 0 0 0 127 0" result="hardAlpha"/>
<feOffset dy="4"/>
<feGaussianBlur stdDeviation="2"/>
<feComposite in2="hardAlpha" operator="out"/>
<feColorMatrix type="matrix" values="0 0 0 0 0 0 0 0 0 0 0 0 0 0 0 0 0 0 0.25 0"/>
<feBlend mode="normal" in2="BackgroundImageFix" result="effect1_dropShadow_29_12835"/>
<feBlend mode="normal" in="SourceGraphic" in2="effect1_dropShadow_29_12835" result="shape"/>
</filter>
</defs>
</svg>
