<?xml version="1.0" encoding="UTF-8"?>
<svg id="Layer_2" data-name="Layer 2" xmlns="http://www.w3.org/2000/svg" viewBox="0 0 798.78 176">
  <defs>
    <style>
      .cls-1 {
        stroke: #666;
        stroke-miterlimit: 10;
        stroke-width: 4px;
      }

      .cls-1, .cls-2 {
        fill: #666;
      }
    </style>
  </defs>
  <g>
    <g>
      <path class="cls-2" d="M62.62,67.61c3.91,0,7.11.59,9.6,1.77,2.49,1.18,4.44,2.69,5.87,4.52,1.43,1.83,2.4,3.85,2.93,6.05.53,2.2.8,4.36.8,6.48,0,2.45-.23,4.63-.67,6.54-.45,1.92-.84,3.24-1.16,3.97v-.12c-.57,1.22-1.45,2.2-2.63,2.93-1.18.73-2.37,1.24-3.55,1.53-1.18.29-2.18.41-3,.37-.82-.04-1.14-.26-.98-.67,1.14-2.28,1.96-4.63,2.45-7.03.49-2.4.73-4.75.73-7.03,0-1.87-.16-3.65-.49-5.32-.33-1.67-.86-3.12-1.59-4.34-.73-1.22-1.65-2.2-2.75-2.93-1.1-.73-2.43-1.1-3.97-1.1-1.22,0-2.36.73-3.42,2.2-1.06,1.47-2.02,3.3-2.87,5.5s-1.59,4.65-2.2,7.34-1.14,5.22-1.59,7.58c-.45,2.36-.79,4.44-1.04,6.24-.24,1.79-.41,2.93-.49,3.42-.16,1.39-.31,2.69-.43,3.91-.12,1.22-.18,2.36-.18,3.42,0,3.75.43,6.89,1.28,9.41.86,2.53,1.89,4.55,3.12,6.05,1.22,1.51,2.46,2.57,3.73,3.18,1.26.61,2.34.92,3.24.92,2.85,0,5.71-1.26,8.56-3.79,2.85-2.53,5.56-5.58,8.13-9.17,2.57-3.59,4.91-7.29,7.03-11.13,2.12-3.83,3.87-7.05,5.26-9.66.65-1.22,1.24-2.26,1.77-3.12.53-.86.96-1.45,1.28-1.77.73-.81,1.55-1.41,2.45-1.77.9-.37,1.71-.45,2.45-.24.73.2,1.32.67,1.77,1.41.45.73.59,1.75.43,3.06-.08.65-.55,2.08-1.41,4.28s-2.06,4.79-3.61,7.76c-1.55,2.98-3.42,6.09-5.62,9.35-2.2,3.26-4.71,6.26-7.52,8.99-2.81,2.73-5.91,5.03-9.29,6.91-3.38,1.88-6.99,2.86-10.82,2.93-4.73.16-8.72-.2-11.98-1.1-3.26-.9-5.95-2.08-8.07-3.55-2.12-1.47-3.75-3.12-4.89-4.95-1.14-1.83-1.96-3.67-2.45-5.5-.49-1.83-.77-3.55-.86-5.14-.08-1.59-.12-2.87-.12-3.85v-.98c-.08-.57-.02-2.06.18-4.46.2-2.4.63-5.24,1.28-8.5.65-3.26,1.59-6.7,2.81-10.33,1.22-3.63,2.83-6.97,4.83-10.03,2-3.06,4.44-5.56,7.34-7.52,2.89-1.96,6.34-2.93,10.33-2.93Z"/>
      <path class="cls-2" d="M106.31,24.67c1.63-1.71,3.4-2.97,5.32-3.79,1.91-.81,3.85-1.22,5.81-1.22,1.79,0,3.55.35,5.26,1.04,1.71.69,3.24,1.65,4.59,2.87,1.34,1.22,2.4,2.71,3.18,4.46.77,1.75,1.16,3.65,1.16,5.69-.08,8.97-.98,17.26-2.69,24.88-1.71,7.62-3.81,14.53-6.3,20.73-2.49,6.2-5.12,11.6-7.89,16.2-2.77,4.61-5.18,8.34-7.21,11.19.33,4.16.8,7.68,1.41,10.58.61,2.89,1.22,5.24,1.83,7.03.61,1.79,1.16,3.1,1.65,3.91.49.82.81,1.22.98,1.22,1.14-.24,2.63-1.43,4.46-3.55,1.83-2.12,3.77-4.69,5.81-7.7,2.04-3.02,4.1-6.26,6.17-9.72,2.08-3.46,3.95-6.72,5.62-9.78,1.67-3.06,3.06-5.64,4.16-7.76,1.1-2.12,1.69-3.34,1.77-3.67.08-.65.49-1.18,1.22-1.59.73-.41,1.53-.61,2.38-.61s1.67.2,2.45.61c.77.41,1.32,1.1,1.65,2.08-.08,1.14-.63,2.96-1.65,5.44-1.02,2.49-2.32,5.28-3.91,8.38-1.59,3.1-3.34,6.34-5.26,9.72-1.92,3.38-3.75,6.52-5.5,9.41-1.75,2.89-3.32,5.4-4.71,7.52-1.39,2.12-2.36,3.47-2.93,4.03-1.71,1.63-3.63,2.87-5.75,3.73-2.12.86-4.28,1.28-6.48,1.28-1.88,0-3.65-.33-5.32-.98-1.67-.65-3.08-1.59-4.22-2.81-2.2-2.53-4.12-5.44-5.75-8.74-1.63-3.3-2.96-6.85-3.97-10.64-1.02-3.79-1.79-7.74-2.32-11.86-.53-4.12-.79-8.29-.79-12.53,0-7.01.51-14.02,1.53-21.03,1.02-7.01,2.3-13.47,3.85-19.38,1.55-5.91,3.26-11.04,5.14-15.41,1.87-4.36,3.63-7.44,5.26-9.23ZM107.16,97.79c2.2-4.32,4.05-8.74,5.56-13.27,1.51-4.52,2.77-8.97,3.79-13.33,1.02-4.36,1.81-8.56,2.38-12.59.57-4.03,1-7.7,1.28-11,.28-3.3.47-6.15.55-8.56.08-2.4.16-4.18.24-5.32v-1.1c.08-4.81-.45-7.21-1.59-7.21-.65,0-1.37.75-2.14,2.26-.78,1.51-1.49,3.57-2.14,6.17-1.31,5.95-2.45,11.76-3.42,17.42-.98,5.67-1.82,11.07-2.51,16.2-.69,5.14-1.2,9.92-1.53,14.37-.33,4.44-.49,8.38-.49,11.8v4.16Z"/>
      <path class="cls-2" d="M169.99,83.49c0-.29.04-.47.11-.54.07-.36.34-.78.82-1.25.47-.47,1.05-.91,1.74-1.31.69-.4,1.47-.72,2.34-.98.87-.25,1.74-.38,2.61-.38,1.16,0,2.2.27,3.1.82.91.54,1.47,1.51,1.69,2.89.29,1.45.44,3.41.44,5.88,0,2.61-.13,5.47-.38,8.55-.26,3.09-.56,6.23-.93,9.42-.29,3.05-.56,5.97-.82,8.77-.25,2.8-.38,5.32-.38,7.57s.18,4.23.55,5.72c.36,1.49.98,2.16,1.85,2.02.65-.07,1.43-.85,2.34-2.34.91-1.49,1.87-3.38,2.89-5.67,1.02-2.29,2.05-4.85,3.11-7.68,1.05-2.83,2.07-5.67,3.05-8.5.98-2.83,1.89-5.52,2.72-8.06.83-2.54,1.54-4.65,2.12-6.32l1.09-3.6c.22-.51.72-.83,1.52-.98.8-.14,1.63-.14,2.51,0,.87.15,1.6.4,2.18.76.58.36.76.76.54,1.2v-.22l-.87,3.05c-.44,1.96-1.05,4.41-1.85,7.35-.8,2.94-1.78,6.07-2.94,9.37-1.16,3.31-2.47,6.63-3.92,9.97-1.45,3.34-3.09,6.34-4.9,8.99-1.82,2.65-3.8,4.79-5.94,6.43-2.14,1.63-4.41,2.41-6.81,2.34-1.6-.22-3-.84-4.19-1.85-1.2-1.02-2.23-2.29-3.1-3.81-.87-1.52-1.62-3.29-2.23-5.28-.62-2-1.07-4.12-1.36-6.37-1.02,1.89-2.4,3.61-4.14,5.18-1.74,1.56-3.92,2.52-6.54,2.89-5.01.29-8.95-.47-11.82-2.29-2.87-1.81-5.01-4.07-6.43-6.76-1.42-2.69-2.31-5.54-2.67-8.55-.36-3.01-.58-5.61-.65-7.79,0-1.45.09-3.32.27-5.61.18-2.29.6-4.74,1.25-7.35s1.54-5.25,2.67-7.9c1.13-2.65,2.61-5.07,4.47-7.25,1.85-2.18,4.12-3.98,6.81-5.39,2.69-1.42,5.85-2.2,9.48-2.34,2.9-.07,5.28.18,7.14.76,1.85.58,3.32,1.31,4.41,2.18,1.09.87,1.89,1.78,2.4,2.72.51.94.87,1.78,1.09,2.51l.33,1.09v-.11c.58,1.24.49,2.18-.27,2.83-.76.65-1.76.98-3,.98-.73,0-1.49-.16-2.29-.49-.8-.33-1.49-.82-2.07-1.47-.36-.29-.54-.51-.54-.65s-.07-.33-.22-.54c-.36-.8-.96-1.71-1.8-2.72-.84-1.02-2.2-1.49-4.09-1.42-1.09.07-2.27.8-3.54,2.18-1.27,1.38-2.47,3.34-3.6,5.88-1.13,2.54-2.12,5.61-3,9.21-.87,3.6-1.45,7.68-1.74,12.26,0,.44-.02,1.02-.05,1.74-.04.73-.05,1.27-.05,1.63,0,4.29.33,7.54.98,9.75.65,2.22,1.42,3.81,2.29,4.79s1.74,1.51,2.61,1.58c.87.07,1.52.11,1.96.11.87,0,1.78-.44,2.72-1.31.94-.87,1.83-1.94,2.67-3.21.83-1.27,1.62-2.65,2.34-4.14.72-1.49,1.38-2.85,1.96-4.09,0-2.76.07-5.46.22-8.12.14-2.65.33-5.1.54-7.35.22-2.25.44-4.19.65-5.83s.4-2.81.54-3.54Z"/>
      <path class="cls-2" d="M199.63,75.95c0-.33.04-.53.12-.61,0-1.22.77-2.3,2.32-3.24,1.55-.94,3.26-1.41,5.14-1.41,1.38,0,2.67.37,3.85,1.1,1.18.73,1.94,1.92,2.26,3.55.24,1.14.39,2.38.43,3.73.04,1.34.06,2.79.06,4.34,0,2.69-.08,5.58-.24,8.68-.17,3.1-.37,6.2-.61,9.29-.16,3.1-.31,6.09-.43,8.99-.12,2.89-.18,5.61-.18,8.13,0,3.91.2,7.11.61,9.6.41,2.49,1.26,3.65,2.57,3.48.73-.16,1.59-1.08,2.57-2.75.98-1.67,2.02-3.83,3.12-6.48,1.1-2.65,2.2-5.64,3.3-8.99,1.1-3.34,2.18-6.66,3.24-9.96,1.06-3.3,2.06-6.48,3-9.54.94-3.06,1.73-5.69,2.38-7.89l1.59-5.26c.33-.9.92-1.49,1.77-1.77.86-.28,1.69-.37,2.51-.24.81.12,1.55.45,2.2.98.65.53.98,1.2.98,2.02,0,1.79-.31,4.42-.92,7.89-.61,3.47-1.49,7.26-2.63,11.37-1.14,4.12-2.57,8.31-4.28,12.59-1.71,4.28-3.69,8.15-5.93,11.62-2.24,3.47-4.71,6.32-7.4,8.56-2.69,2.24-5.62,3.36-8.8,3.36-2.86-.33-5.24-1.47-7.15-3.42-1.92-1.96-3.47-4.42-4.65-7.4-1.18-2.97-2.02-6.3-2.51-9.97-.49-3.67-.73-7.42-.73-11.25,0-3.26.1-6.48.31-9.66.2-3.18.45-6.09.73-8.74.28-2.65.57-4.91.86-6.79.28-1.87.47-3.18.55-3.91Z"/>
      <path class="cls-2" d="M272.38,72.1c1.38-.57,2.73-.77,4.03-.61,1.3.16,2.45.51,3.42,1.04.98.53,1.77,1.18,2.38,1.96.61.78.92,1.49.92,2.14,0,.33-.1.84-.31,1.53-.2.69-.43,1.49-.67,2.38-.49,1.47-1,3.22-1.53,5.26-.53,2.04-1,4.1-1.41,6.18-.41,2.08-.71,4.08-.92,5.99-.2,1.92-.18,3.49.06,4.71l.98,3.55c.16.73.35,1.45.55,2.14.2.69.31,1.24.31,1.65,0,1.3-.55,2.1-1.65,2.38-1.1.29-3.08-.06-5.93-1.04-2.37-.81-4.14-2.75-5.32-5.81-1.18-3.06-1.77-6.46-1.77-10.21,0-1.14.04-2.22.12-3.24.08-1.02.2-2.06.37-3.12-2.2,2.37-4.18,5.01-5.93,7.95-1.75,2.93-3.3,5.93-4.65,8.99-1.34,3.06-2.53,6.07-3.55,9.05-1.02,2.98-1.85,5.69-2.51,8.13v.49c0,2.12-.08,3.93-.24,5.44-.16,1.51-.41,2.55-.73,3.12-.65,1.47-1.59,2.57-2.81,3.3-1.22.73-2.57,1.1-4.03,1.1s-2.81-.41-4.03-1.22c-1.22-.81-2.16-2.12-2.81-3.91-.33-.9-.61-2.36-.86-4.4-.24-2.04-.47-4.42-.67-7.15-.2-2.73-.35-5.69-.43-8.87-.08-3.18-.12-6.4-.12-9.66,0-3.01.04-5.95.12-8.8.08-2.85.2-5.44.37-7.76.16-2.32.37-4.32.61-5.99.24-1.67.57-2.83.98-3.49.73-1.38,1.75-2.42,3.06-3.12,1.3-.69,2.57-1.04,3.79-1.04,1.47,0,2.79.59,3.97,1.77,1.18,1.18,1.65,2.87,1.41,5.07,0,.65.02,1.55.06,2.69.04,1.14.1,2.43.18,3.85.08,1.43.16,2.93.24,4.52.08,1.59.2,3.16.37,4.71l.86,12.23c.98-3.34,2.2-6.73,3.67-10.15,1.47-3.42,3.16-6.66,5.07-9.72,1.91-3.06,4.12-5.81,6.6-8.25,2.49-2.45,5.28-4.36,8.38-5.75Z"/>
      <path class="cls-2" d="M314.32,66.38c3.34,0,6.19.37,8.56,1.1,2.36.73,4.3,1.65,5.81,2.75,1.51,1.1,2.69,2.32,3.55,3.67s1.49,2.69,1.89,4.03c.41,1.34.63,2.61.67,3.79.04,1.18.02,2.14-.06,2.87-.82,4.81-2.26,8.74-4.34,11.8-2.08,3.06-4.44,5.44-7.09,7.15-2.65,1.71-5.44,2.89-8.38,3.55-2.93.65-5.67.98-8.19.98-2.28,0-4.16-.12-5.62-.37v.74c0,2.71.18,5.29.55,7.75.37,2.46.94,4.61,1.71,6.46.77,1.85,1.75,3.32,2.93,4.43,1.18,1.11,2.55,1.66,4.1,1.66,3.34-.16,6.46-.94,9.35-2.32,2.89-1.38,5.54-3.14,7.95-5.26,2.4-2.12,4.59-4.48,6.54-7.09,1.96-2.61,3.67-5.22,5.14-7.83,1.47-2.61,2.73-5.09,3.79-7.46,1.06-2.36,1.91-4.32,2.57-5.87l1.1-2.57c.41-.57,1.06-1.02,1.96-1.34.9-.33,1.77-.49,2.63-.49s1.57.24,2.14.73c.57.49.81,1.3.73,2.45-.24,1.39-.86,3.44-1.83,6.17-.98,2.73-2.36,5.77-4.16,9.11-1.79,3.34-3.93,6.75-6.42,10.21-2.49,3.47-5.3,6.64-8.44,9.52-3.14,2.88-6.6,5.23-10.39,7.03-3.79,1.8-7.85,2.67-12.17,2.58-4-.08-7.42-.69-10.27-1.83-2.86-1.14-5.26-2.57-7.21-4.28-1.96-1.71-3.53-3.63-4.71-5.75-1.18-2.12-2.08-4.14-2.69-6.05-.61-1.91-1.02-3.63-1.22-5.14-.2-1.51-.31-2.59-.31-3.24v-.98c0-1.22.06-3.12.18-5.69.12-2.57.47-5.44,1.04-8.62.57-3.18,1.47-6.46,2.69-9.84,1.22-3.38,2.93-6.46,5.14-9.23,2.2-2.77,4.99-5.03,8.38-6.79,3.38-1.75,7.52-2.59,12.41-2.51ZM317.25,72.86c-2.2.41-4.24,1.55-6.11,3.42-1.88,1.88-3.51,4.26-4.89,7.15-1.39,2.89-2.51,6.09-3.36,9.6-.86,3.51-1.45,7.05-1.77,10.64.49,0,.96.02,1.41.06.45.04,1,.06,1.65.06,1.71,0,3.59-.26,5.62-.8,2.04-.53,3.99-1.49,5.87-2.87,1.87-1.38,3.46-3.28,4.77-5.69,1.3-2.4,2.08-5.52,2.32-9.35.08-1.22.02-2.55-.18-3.97-.2-1.43-.55-2.73-1.04-3.91-.49-1.18-1.08-2.18-1.77-3-.69-.81-1.53-1.26-2.51-1.34Z"/>
    </g>
    <path class="cls-2" d="M224.13,36c-2.47,1.13-6.92,3.56-10.83,8.33-4.5,5.49-5.9,11.16-6.39,13.89-.46-2.67-1.85-8.51-6.57-14.07-4.09-4.82-8.74-7.13-11.21-8.15,2.37-.58,8.1-2.34,12.8-7.65,2.86-3.23,4.27-6.55,4.97-8.7.45,2.02,1.54,5.6,4.44,9.05,4.68,5.58,10.85,6.94,12.78,7.29Z"/>
  </g>
  <g>
    <g>
      <path class="cls-2" d="M466.96,89.78c-5.77,4.47-10.58,10.07-14.01,16.5-.36.67-.64,1.23-.8,1.63-.98,2.36-1.5,4.69-1.57,6.97,0,1.34.32,2.85.96,4.54.63,1.69,1.64,3.24,3.02,4.65,1.38,1.41,3.09,2.59,5.14,3.52,2.05.94,4.45,1.32,7.2,1.15,3.62-.17,6.84-.99,9.67-2.45,2.83-1.46,5.36-3.68,7.59-6.63,2.23-2.96,4.26-6.7,6.1-11.23,1.83-4.53,3.64-9.9,5.43-16.12.23-.71.9-1.16,2-1.36,1.1-.2,2.24-.19,3.42.05s2.2.66,3.07,1.29c.87.63,1.18,1.41.95,2.36-1.4,5.2-3.13,10.22-5.2,15.06-2.07,4.84-4.63,9.2-7.68,13.06-3.05,3.87-6.66,7.03-10.82,9.48-4.16,2.45-8.95,3.89-14.38,4.3-5.27-.06-9.76-1.18-13.46-3.37-3.71-2.19-6.7-4.77-8.99-7.75-.15,3.54-.38,5.66-.69,6.37-.63,1.42-1.52,2.48-2.7,3.19-1.18.71-2.44,1.07-3.77,1.08-1.49,0-2.83-.38-4.01-1.17-1.18-.78-2.09-2.04-2.73-3.77-.24-.55-.42-1.57-.54-3.06-.12-1.49-.25-3.36-.37-5.6-.13-2.24-.21-4.78-.26-7.61-.05-2.83-.08-5.86-.09-9.08-.02-4.56,0-9.4.07-14.51.06-5.11.16-10.19.3-15.22.14-5.03.3-9.89.48-14.57.18-4.68.4-8.89.66-12.63.26-3.74.52-6.82.79-9.26.26-2.44.56-3.97.87-4.6.7-1.34,1.68-2.35,2.94-3.02,1.26-.67,2.47-1.01,3.65-1.02,1.42,0,2.72.56,3.9,1.7,1.19,1.14,1.62,2.77,1.32,4.89v3.07c.02,2.12.03,5.01.04,8.67s.07,7.81.16,12.45c.1,5.66.18,11.7.24,18.11.06,6.41.1,12.68.13,18.82v.83c2.35-3.31,5.01-6.66,7.99-10.06,2.98-3.39,5.88-6.49,8.7-9.29,2.82-2.8,5.39-5.11,7.7-6.93,2.31-1.82,3.98-2.8,5-2.97,1.57-.16,2.79-.07,3.66.28.87.35,1.52.86,1.95,1.53.43.67.65,1.45.66,2.36s-.03,1.79-.11,2.66c0,0,0,0,0,.01-.78,2.03-2.05,3.83-3.77,5.16l-9.8,7.59Z"/>
      <path class="cls-2" d="M746.22,122.51c-3.05,3.87-6.66,7.03-10.82,9.48-4.16,2.45-8.95,3.89-14.38,4.3-5.27-.06-9.76-1.18-13.46-3.37-3.71-2.19-6.7-4.77-8.99-7.75-.15,3.54-.38,5.66-.69,6.37-.63,1.42-1.52,2.48-2.7,3.19-1.18.71-2.44,1.07-3.77,1.08-1.49,0-2.83-.38-4.01-1.17-1.18-.78-2.09-2.04-2.73-3.77-.24-.55-.42-1.57-.54-3.06-.12-1.49-.25-3.36-.37-5.6-.13-2.24-.21-4.78-.26-7.61-.05-2.83-.08-5.86-.09-9.08-.02-4.56,0-9.4.07-14.51.06-5.11.16-10.19.3-15.22.14-5.03.3-9.89.48-14.57.18-4.68.4-8.89.66-12.63.26-3.74.52-6.82.79-9.26.27-2.44.56-3.97.87-4.6.7-1.34,1.68-2.35,2.94-3.02,1.26-.67,2.47-1.01,3.65-1.02,1.42,0,2.72.56,3.9,1.7,1.18,1.14,1.62,2.77,1.32,4.89v3.07c.02,2.12.03,5.01.04,8.67.01,3.66.07,7.81.16,12.45.1,5.66.18,11.7.24,18.11.06,6.41.1,12.68.13,18.82v.83c2.35-3.31,5.01-6.66,7.99-10.06,2.98-3.39,5.88-6.49,8.7-9.29,2.82-2.8,5.39-5.11,7.7-6.93,2.31-1.82,3.98-2.8,5-2.97,1.57-.16,2.79-.07,3.66.28.87.35,1.52.86,1.95,1.53.43.67.65,1.45.66,2.36s-.03,1.79-.11,2.66c0,0,0,0,0,.01-.78,2.03-2.05,3.84-3.77,5.16l-9.8,7.59c-5.77,4.47-10.58,10.07-14.01,16.5-.36.67-.64,1.23-.8,1.63-.98,2.36-1.5,4.69-1.57,6.97,0,1.34.32,2.85.96,4.54.63,1.69,1.64,3.24,3.02,4.65,1.38,1.41,3.09,2.59,5.14,3.52,2.05.94,4.45,1.32,7.2,1.15,3.62-.17,6.84-.99,9.67-2.45,2.83-1.46,5.36-3.68,7.59-6.63,2.21-3.09,5.91-3.4,7.49-1.91,1.11,1.04,1.31,3.09.6,5.01Z"/>
      <path class="cls-2" d="M491.66,94.49c.63-.39,1.3-.65,2-.77s1.37-.18,2-.18c.23-1.1.64-2.5,1.22-4.19.58-1.69,1.54-3.31,2.87-4.85,1.33-1.54,3.17-2.84,5.53-3.91s5.42-1.61,9.2-1.62c3.85.07,7.04.86,9.57,2.38,2.52,1.52,4.51,3.43,5.98,5.7,1.46,2.28,2.45,4.73,2.98,7.36.52,2.63.74,5.05.68,7.25v1.3s-.22,4.13-.22,4.13c2.67-1.11,5.24-2.56,7.71-4.33,2.47-1.78,4.53-4.05,6.17-6.81h-.12c.39-.63,1.02-1.22,1.88-1.78.86-.55,1.65-.83,2.36-.83.86,0,1.43.29,1.71.88.28.59.07,1.67-.64,3.25-1.09,2.36-2.4,4.47-3.93,6.33-1.53,1.85-3.17,3.51-4.94,4.97-1.76,1.46-3.59,2.75-5.47,3.85-1.88,1.11-3.77,2.02-5.65,2.73-.54,2.68-1.36,5.39-2.45,8.15-1.09,2.76-2.58,5.24-4.46,7.45-1.88,2.21-4.27,4.01-7.18,5.39-2.91,1.39-6.44,2.05-10.61,1.98-4.41-.06-8.05-.76-10.92-2.08-2.88-1.33-5.16-3.03-6.86-5.11-1.7-2.08-2.89-4.45-3.57-7.13-.68-2.67-1.02-5.38-1.03-8.14,0-2.52.22-4.97.68-7.38.46-2.4,1.01-4.58,1.63-6.55.62-1.97,1.3-3.6,2.05-4.9.74-1.3,1.35-2.15,1.82-2.54ZM519.82,117.99c-4.72-.14-8.58-.85-11.57-2.14s-5.4-2.83-7.21-4.64v2.01c.01,2.05.16,4.07.44,6.07.28,2,.8,3.81,1.55,5.42.75,1.61,1.76,2.9,3.02,3.88,1.26.98,2.87,1.51,4.84,1.58,1.41,0,2.71-.34,3.89-1.02,1.18-.67,2.22-1.58,3.12-2.72.9-1.14,1.7-2.44,2.41-3.9.7-1.46,1.33-2.97,1.87-4.55-.47,0-.88.02-1.24.06-.35.04-.73.02-1.12-.05ZM519.32,109.85c1.18.15,2.75.03,4.72-.37.23-1.49.4-2.77.52-3.84.11-1.06.17-1.75.17-2.06.07-2.52-.04-4.99-.32-7.43-.29-2.44-.84-4.6-1.67-6.48-.83-1.88-1.98-3.36-3.44-4.41-1.46-1.06-3.33-1.5-5.61-1.34-1.26.08-2.44.58-3.53,1.49-1.1.91-2.02,1.97-2.76,3.2-.74,1.22-1.27,2.5-1.58,3.84-.31,1.34-.34,2.52-.11,3.54l.48,2c.16,1.1.42,2.34.78,3.71.36,1.38.99,2.65,1.9,3.83.91,1.18,2.19,2.17,3.84,2.99,1.65.82,3.86,1.27,6.61,1.33Z"/>
      <path class="cls-2" d="M552.6,26.95c1.57-1.66,3.27-2.88,5.12-3.68,1.84-.79,3.71-1.19,5.6-1.2,1.73,0,3.42.32,5.08.99,1.66.66,3.13,1.58,4.43,2.76,1.3,1.17,2.33,2.61,3.08,4.3.75,1.69,1.13,3.52,1.14,5.48-.05,8.65-.89,16.66-2.51,24.02-1.63,7.36-3.63,14.03-6.01,20.02-2.38,5.99-4.9,11.21-7.56,15.66-2.66,4.45-4.97,8.06-6.92,10.82.33,4.01.79,7.41,1.39,10.2.6,2.79,1.2,5.05,1.79,6.78.6,1.73,1.13,2.99,1.61,3.77.47.79.79,1.18.95,1.18,1.1-.24,2.53-1.38,4.29-3.44,1.76-2.05,3.62-4.54,5.58-7.45,1.95-2.92,3.93-6.05,5.93-9.4,1.99-3.35,3.79-6.5,5.39-9.46,1.6-2.96,2.93-5.46,3.99-7.51,1.05-2.05,1.62-3.23,1.7-3.55.07-.63.47-1.14,1.17-1.54.71-.39,1.47-.59,2.3-.6s1.61.19,2.36.58c.75.39,1.28,1.06,1.6,2-.08,1.1-.6,2.85-1.58,5.26-.98,2.4-2.22,5.1-3.75,8.1-1.52,3-3.2,6.13-5.04,9.4-1.84,3.27-3.6,6.31-5.28,9.1-1.68,2.8-3.19,5.22-4.52,7.27-1.33,2.05-2.27,3.35-2.82,3.9-1.65,1.58-3.49,2.78-5.53,3.62-2.04.83-4.13,1.25-6.25,1.26-1.81,0-3.52-.3-5.14-.93-1.62-.62-2.98-1.52-4.08-2.7-2.13-2.43-3.99-5.24-5.57-8.42-1.59-3.18-2.88-6.6-3.87-10.25-1-3.65-1.76-7.47-2.28-11.44-.53-3.97-.79-8-.81-12.09-.02-6.76.44-13.53,1.4-20.3.96-6.77,2.18-13,3.65-18.71,1.47-5.71,3.11-10.67,4.9-14.88,1.79-4.21,3.47-7.19,5.04-8.93ZM553.68,97.5c2.11-4.18,3.88-8.45,5.32-12.82,1.44-4.37,2.64-8.66,3.61-12.87.97-4.21,1.72-8.27,2.26-12.16.54-3.9.94-7.44,1.2-10.62.26-3.19.43-5.94.5-8.26.07-2.32.14-4.03.22-5.13v-1.06c.06-4.64-.46-6.96-1.56-6.96-.63,0-1.32.73-2.06,2.19-.74,1.46-1.42,3.45-2.04,5.97-1.24,5.75-2.32,11.35-3.24,16.82-.92,5.47-1.71,10.68-2.36,15.64-.65,4.96-1.13,9.58-1.43,13.87-.3,4.29-.44,8.08-.43,11.39v4.01Z"/>
      <path class="cls-2" d="M599.43,117.82c.07.71.15,1.32.22,1.82.07.5.95,4.69-.19,6.16-1.14,1.47-2.88,2.21-5.24,2.21-.64,0-1.32-.07-2.04-.21-.71-.14-1.47-.39-2.25-.74-.79-.35-1.43-1.14-1.94-2.35-.5-1.21-.9-2.71-1.19-4.49-.29-1.78-.51-3.8-.66-6.05-.15-2.25-.23-4.59-.24-7.02,0-2.79.07-5.61.24-8.46.17-2.86.39-5.55.67-8.09.28-2.53.59-4.77.94-6.7.35-1.93.82-5.73,1.43-6.06.6-.32,1.41-.59,2.41-.81,1-.22,2.1-.33,3.32-.33,1.5,0,2.82.22,3.97.68,1.14.46,1.65,1.33,1.51,2.62,0,.14-.21,1.25-.21,1.61l-1.7,10.4c1.13-3.79,5.94-11.38,8.69-14.57,2.46-2.92,6.59-7.67,7.95-8.6,2.7-1.83,4.82-2.58,7.18-2.58,2.07,0,3.79.43,5.15,1.32,1.36.89,2.45,2.12,3.28,3.68.83,1.57,1.42,3.44,1.79,5.62.36,2.18.55,4.59.56,7.23.02,4.36-.31,7.97-.97,13.07-.66,5.11-1.34,10.13-2.04,15.06-.7,4.14-2.42,11.83-2.41,14.47,0,2.07.17,3.69.5,4.87.33,1.18.92,1.76,1.77,1.76.21-.21.78-1.36,1.7-3.43.92-2.08,2.04-4.65,3.35-7.72,1.31-3.07,2.71-6.4,4.2-9.98,1.49-3.58,2.9-6.97,4.25-10.19.71-1.79,1.4-3.47,2.07-5.04.67-1.57,1.28-2.97,1.81-4.18.53-1.22.97-2.2,1.33-2.95.35-.75.6-1.23.74-1.45.43-.57,1.08-.98,1.98-1.24.89-.25,1.75-.31,2.57-.17.82.14,1.48.46,1.99.96.5.5.61,1.21.33,2.14l-6.58,16.84c-2.33,6.15-4.33,11.25-6,15.29-1.67,4.04-3.31,7.24-4.95,9.6-1.63,2.36-3.4,3.98-5.28,4.84-1.89.86-4.23,1.12-7.01.77-1.93-.21-3.56-.81-4.88-1.8-1.33-1-2.38-2.29-3.17-3.9-.79-1.6-1.37-3.46-1.73-5.56-.36-2.1-.23-8.46.44-13.07.66-4.61,1.31-9.09,1.93-13.45.56-3.57,1.07-5.86,1.52-9.11.45-3.25.67-5.98.67-8.2,0-1.71-.15-3.07-.44-4.07-.29-1-.76-1.53-1.4-1.6-.71-.07-1.58.76-2.78,2.37-4.55,6.12-15.56,17.58-17.02,34.64-.14,1.64-.2,3.05-.09,4.14Z"/>
      <path class="cls-2" d="M650.88,76.31c0-.31.04-.51.12-.59,0-1.18.74-2.22,2.23-3.13,1.49-.91,3.14-1.37,4.95-1.37,1.34,0,2.58.34,3.72,1.05,1.14.7,1.87,1.84,2.19,3.41.24,1.1.38,2.3.43,3.6.04,1.3.07,2.69.07,4.19,0,2.6-.06,5.39-.21,8.38-.15,2.99-.33,5.98-.56,8.97-.15,2.99-.28,5.88-.38,8.67-.11,2.79-.16,5.41-.15,7.85.01,3.78.22,6.86.62,9.26.4,2.4,1.23,3.51,2.49,3.35.71-.16,1.53-1.05,2.47-2.66.94-1.61,1.93-3.7,2.99-6.26,1.05-2.56,2.1-5.45,3.16-8.68,1.05-3.23,2.08-6.44,3.09-9.63,1.01-3.19,1.96-6.26,2.86-9.21.89-2.95,1.65-5.49,2.27-7.62l1.52-5.08c.31-.87.88-1.44,1.7-1.72.82-.28,1.63-.36,2.42-.24.78.12,1.49.43,2.13.94.63.51.95,1.16.95,1.94,0,1.73-.28,4.27-.86,7.61-.58,3.35-1.41,7.01-2.5,10.98-1.09,3.98-2.45,8.03-4.09,12.17-1.64,4.14-3.53,7.88-5.68,11.23-2.15,3.35-4.52,6.11-7.11,8.28-2.59,2.17-5.42,3.26-8.48,3.27-2.76-.31-5.06-1.4-6.91-3.28-1.85-1.88-3.36-4.25-4.51-7.12-1.15-2.87-1.97-6.07-2.45-9.61-.48-3.54-.73-7.15-.75-10.85-.01-3.14.08-6.25.26-9.32.19-3.07.41-5.88.68-8.44.27-2.56.53-4.74.8-6.55.27-1.81.44-3.07.52-3.78Z"/>
    </g>
    <path class="cls-1" d="M389.49,117.91c.54.11,5.82-3.28,5.04-2.85-.87.23-4.39,3.5-4.96,4.4-.57.9-.85,1.95-.84,3.15,0,.97.25,1.95.73,2.92.48.97,1.29,1.84,2.43,2.6,1.14.76,2.63,1.36,4.49,1.78,1.85.42,4.15.57,6.9.45,3.53-.16,6.32-.88,8.36-2.16,2.04-1.28,3.19-2.99,3.45-5.12.13-1.2-.17-2.61-.9-4.24s-1.72-3.38-2.99-5.27c-1.27-1.88-2.73-3.86-4.37-5.94-1.64-2.07-3.32-4.13-5.02-6.19-1.4-1.68-2.75-3.33-4.04-4.95-1.29-1.62-2.46-3.16-3.52-4.62-1.05-1.46-1.93-2.82-2.63-4.09-.7-1.27-1.16-2.39-1.38-3.36-.09-.45-.17-.9-.23-1.35-.07-.45-.1-.88-.1-1.29,0-2.17.56-4.06,1.69-5.68,1.14-1.61,2.62-2.93,4.47-3.95,1.84-1.02,3.92-1.75,6.22-2.21,2.31-.46,4.66-.62,7.06-.47,1.87.11,3.52.39,4.94.85,1.42.46,2.61,1,3.57,1.62.96.61,1.68,1.21,2.16,1.79.48.58.72,1.04.72,1.37,0,.94-.29,1.51-.88,1.72-.59.21-1.3-.19-2.13-1.2-.26-.3-.66-.65-1.18-1.06-.52-.41-1.17-.8-1.93-1.17-.76-.37-1.65-.67-2.65-.89-1-.22-2.09-.31-3.27-.27-.78,0-1.74.12-2.88.35-1.13.23-2.22.64-3.27,1.25-1.04.6-1.93,1.44-2.67,2.51-.74,1.07-1.1,2.45-1.1,4.13,0,.41.04.88.1,1.4.07.52.14,1.05.23,1.57.4,1.31,1.35,3.02,2.86,5.13,1.51,2.11,3.32,4.41,5.42,6.91,1.66,2.13,3.38,4.35,5.16,6.66,1.77,2.31,3.41,4.63,4.9,6.94,1.49,2.32,2.72,4.59,3.69,6.81.97,2.22,1.5,4.29,1.59,6.2.05,1.31-.34,2.65-1.16,4.02-.82,1.37-2.07,2.61-3.75,3.72-1.68,1.11-3.76,2.01-6.27,2.72-2.51.7-5.39,1.06-8.66,1.07-3.54-.02-6.49-.33-8.85-.92-2.37-.59-4.27-1.36-5.72-2.31-1.45-.95-2.48-2.02-3.1-3.22-.62-1.19-.93-2.39-.93-3.59,0-1.72.37-2.45,1.71-3.52,2.5-2,5.31-2.92,6.71-3.48-.52.23-4.05,1.86-4.07,2.15"/>
    <path class="cls-2" d="M673.97,35.75c-2.34,1.08-6.54,3.4-10.23,7.93-4.25,5.22-5.55,10.59-6.01,13.18-.45-2.53-1.78-8.06-6.27-13.31-3.89-4.55-8.3-6.73-10.65-7.69,2.25-.56,7.67-2.25,12.11-7.29,2.7-3.07,4.02-6.22,4.68-8.26.43,1.91,1.48,5.31,4.24,8.56,4.46,5.27,10.31,6.54,12.13,6.87Z"/>
  </g>
</svg>