<svg width="25" height="23" viewBox="0 0 25 23" fill="none" xmlns="http://www.w3.org/2000/svg">
<path d="M9.64 0H16.36C18.92 0 21 2.08 21 4.64V11.36C21 12.5906 20.5111 13.7708 19.641 14.641C18.7708 15.5111 17.5906 16 16.36 16H9.64C7.08 16 5 13.92 5 11.36V4.64C5 3.4094 5.48886 2.22919 6.35902 1.35902C7.22919 0.488856 8.4094 0 9.64 0ZM9.48 1.6C8.71618 1.6 7.98364 1.90343 7.44353 2.44353C6.90343 2.98364 6.6 3.71618 6.6 4.48V11.52C6.6 13.112 7.888 14.4 9.48 14.4H16.52C17.2838 14.4 18.0164 14.0966 18.5565 13.5565C19.0966 13.0164 19.4 12.2838 19.4 11.52V4.48C19.4 2.888 18.112 1.6 16.52 1.6H9.48ZM17.2 2.8C17.4652 2.8 17.7196 2.90536 17.9071 3.09289C18.0946 3.28043 18.2 3.53478 18.2 3.8C18.2 4.06522 18.0946 4.31957 17.9071 4.50711C17.7196 4.69464 17.4652 4.8 17.2 4.8C16.9348 4.8 16.6804 4.69464 16.4929 4.50711C16.3054 4.31957 16.2 4.06522 16.2 3.8C16.2 3.53478 16.3054 3.28043 16.4929 3.09289C16.6804 2.90536 16.9348 2.8 17.2 2.8ZM13 4C14.0609 4 15.0783 4.42143 15.8284 5.17157C16.5786 5.92172 17 6.93913 17 8C17 9.06087 16.5786 10.0783 15.8284 10.8284C15.0783 11.5786 14.0609 12 13 12C11.9391 12 10.9217 11.5786 10.1716 10.8284C9.42143 10.0783 9 9.06087 9 8C9 6.93913 9.42143 5.92172 10.1716 5.17157C10.9217 4.42143 11.9391 4 13 4ZM13 5.6C12.3635 5.6 11.753 5.85286 11.3029 6.30294C10.8529 6.75303 10.6 7.36348 10.6 8C10.6 8.63652 10.8529 9.24697 11.3029 9.69706C11.753 10.1471 12.3635 10.4 13 10.4C13.6365 10.4 14.247 10.1471 14.6971 9.69706C15.1471 9.24697 15.4 8.63652 15.4 8C15.4 7.36348 15.1471 6.75303 14.6971 6.30294C14.247 5.85286 13.6365 5.6 13 5.6Z" fill="white"/>
</svg>
