<svg width="250" height="51" viewBox="0 0 250 51" fill="none" xmlns="http://www.w3.org/2000/svg">
<path d="M11.7983 10C12.3636 10 12.7576 10.2986 12.897 10.4117C13.0813 10.5613 13.2326 10.7341 13.3452 10.8749C13.5752 11.1624 13.8048 11.5246 14.019 11.8936C14.4558 12.6458 14.9423 13.6263 15.3887 14.6C15.8375 15.5793 16.2627 16.5887 16.5796 17.414C16.7374 17.8249 16.8751 18.2063 16.9751 18.5235C17.0247 18.681 17.0704 18.8398 17.1055 18.9882C17.1329 19.1043 17.1831 19.3314 17.1831 19.5785C17.1831 20.3665 16.8999 21.0482 16.5972 21.575C16.2934 22.1037 15.902 22.5925 15.5498 23.0085C15.151 23.4795 14.8632 23.7884 14.5347 24.1907C14.23 24.5638 14.0303 24.8547 13.9165 25.0898C13.8612 25.2042 13.7884 25.4029 14.1392 25.9829C14.5154 26.605 15.1534 27.2761 15.9673 28.1171C16.2713 28.4313 16.9578 29.1368 17.7207 29.6687C18.104 29.9359 18.4352 30.1084 18.689 30.1848C18.816 30.2231 18.8857 30.2269 18.9146 30.2257C19.1389 30.1067 19.4152 29.9043 19.7671 29.5975C20.1564 29.2581 20.4553 28.9607 20.9111 28.5485C21.3137 28.1846 21.7867 27.7802 22.2983 27.4663C22.8082 27.1535 23.4679 26.8608 24.2305 26.8608L24.4048 26.8684C24.5728 26.8844 24.7175 26.9197 24.8018 26.941C24.9453 26.9773 25.0991 27.0244 25.2515 27.0757C25.5584 27.179 25.9275 27.3213 26.3252 27.4844C27.1238 27.8119 28.1007 28.2512 29.0483 28.715C29.9907 29.1763 30.9395 29.679 31.6675 30.1303C32.0246 30.3518 32.3751 30.589 32.6533 30.8266C32.7895 30.943 32.9568 31.0993 33.1016 31.2898C33.211 31.4338 33.5 31.841 33.5 32.425C33.4999 36.4528 30.6063 39.3564 27.812 40.3188C26.5415 40.7564 25.4063 40.9999 24.1338 41C22.8851 41 21.5805 40.7654 19.981 40.3521C18.4007 39.9439 16.8938 39.5056 15.2686 38.6099C13.6444 37.7148 11.9741 36.403 9.96143 34.3232C7.94875 32.2434 6.67926 30.5175 5.81299 28.8392C4.9462 27.1598 4.52202 25.6026 4.12695 23.9697C3.72707 22.3168 3.5 20.9688 3.5 19.6784C3.50009 18.3635 3.73573 17.1904 4.15918 15.8776C5.0906 12.9902 7.9005 10.0001 11.7983 10ZM11.2329 13.1394C9.1827 13.4062 7.57641 15.0871 7.00537 16.8569C6.65213 17.952 6.50008 18.7862 6.5 19.6784C6.5 20.596 6.6605 21.6587 7.0376 23.2174C7.41946 24.7958 7.7729 26.0488 8.45996 27.38C9.14764 28.7124 10.2104 30.1969 12.0825 32.1314C13.9546 34.0659 15.3913 35.1641 16.6807 35.8747C17.9689 36.5847 19.1815 36.9499 20.709 37.3445C22.2174 37.7341 23.2458 37.9 24.1338 37.9C24.9972 37.8999 25.8045 37.7428 26.8643 37.3778C28.5774 36.7876 30.2027 35.127 30.4604 33.0078C30.3668 32.9438 30.2552 32.87 30.1235 32.7883C29.5161 32.4117 28.6666 31.9588 27.7637 31.5168C26.8665 31.0777 25.9499 30.6646 25.2192 30.3649C24.8523 30.2145 24.5469 30.0998 24.3228 30.0244C24.2593 30.003 24.2071 29.9866 24.166 29.9744C24.104 29.9915 23.9953 30.0308 23.8306 30.1318C23.5654 30.2945 23.2614 30.5428 22.8872 30.8811C22.5662 31.1714 22.0883 31.6285 21.7007 31.9664C21.2849 32.3289 20.7881 32.724 20.2388 33.0078C19.3926 33.4449 18.5221 33.3631 17.8496 33.1607C17.1786 32.9586 16.5554 32.5957 16.0435 32.2389C15.0155 31.5223 14.1482 30.6211 13.8462 30.3089C13.1062 29.5443 12.1897 28.6103 11.5947 27.6267C10.9751 26.6023 10.5128 25.1947 11.2344 23.7033C11.509 23.1357 11.8914 22.6223 12.2422 22.1926C12.5692 21.7921 13.0116 21.2983 13.2925 20.9666C13.6199 20.5799 13.8601 20.2658 14.0176 19.9917C14.1159 19.8206 14.1521 19.7075 14.1685 19.6436C14.1567 19.6015 14.142 19.5478 14.1216 19.4832C14.0486 19.2515 13.9376 18.936 13.792 18.5568C13.502 17.8017 13.1022 16.8546 12.6772 15.9275C12.2495 14.9945 11.8112 14.1167 11.4468 13.489C11.3673 13.3521 11.2952 13.2364 11.2329 13.1394Z" fill="black"/>
<path d="M103.5 13.875C103.5 11.7438 102.195 10 100.6 10H77.4C75.805 10 74.5 11.7438 74.5 13.875V37.125C74.5 39.2562 75.805 41 77.4 41H100.6C102.195 41 103.5 39.2562 103.5 37.125V13.875ZM100.6 13.875L89 23.5625L77.4 13.875H100.6ZM100.6 37.125H77.4V17.75L89 27.4375L100.6 17.75V37.125Z" fill="black"/>
<path d="M153.49 10H166.51C171.47 10 175.5 14.03 175.5 18.99V32.01C175.5 34.3943 174.553 36.6809 172.867 38.3669C171.181 40.0528 168.894 41 166.51 41H153.49C148.53 41 144.5 36.97 144.5 32.01V18.99C144.5 16.6057 145.447 14.3191 147.133 12.6331C148.819 10.9472 151.106 10 153.49 10ZM153.18 13.1C151.7 13.1 150.281 13.6879 149.234 14.7343C148.188 15.7808 147.6 17.2001 147.6 18.68V32.32C147.6 35.4045 150.095 37.9 153.18 37.9H166.82C168.3 37.9 169.719 37.3121 170.766 36.2657C171.812 35.2192 172.4 33.7999 172.4 32.32V18.68C172.4 15.5955 169.904 13.1 166.82 13.1H153.18ZM168.137 15.425C168.651 15.425 169.144 15.6291 169.508 15.9925C169.871 16.3558 170.075 16.8486 170.075 17.3625C170.075 17.8764 169.871 18.3692 169.508 18.7325C169.144 19.0959 168.651 19.3 168.137 19.3C167.624 19.3 167.131 19.0959 166.767 18.7325C166.404 18.3692 166.2 17.8764 166.2 17.3625C166.2 16.8486 166.404 16.3558 166.767 15.9925C167.131 15.6291 167.624 15.425 168.137 15.425ZM160 17.75C162.055 17.75 164.027 18.5665 165.48 20.0199C166.933 21.4733 167.75 23.4446 167.75 25.5C167.75 27.5554 166.933 29.5267 165.48 30.9801C164.027 32.4335 162.055 33.25 160 33.25C157.945 33.25 155.973 32.4335 154.52 30.9801C153.067 29.5267 152.25 27.5554 152.25 25.5C152.25 23.4446 153.067 21.4733 154.52 20.0199C155.973 18.5665 157.945 17.75 160 17.75ZM160 20.85C158.767 20.85 157.584 21.3399 156.712 22.212C155.84 23.084 155.35 24.2667 155.35 25.5C155.35 26.7333 155.84 27.916 156.712 28.788C157.584 29.6601 158.767 30.15 160 30.15C161.233 30.15 162.416 29.6601 163.288 28.788C164.16 27.916 164.65 26.7333 164.65 25.5C164.65 24.2667 164.16 23.084 163.288 22.212C162.416 21.3399 161.233 20.85 160 20.85Z" fill="black"/>
<path d="M243.5 19.521C243.5 15.9749 240.718 13.1002 237.286 13.1H225.714C222.282 13.1002 219.5 15.9749 219.5 19.521V31.479C219.5 35.0251 222.282 37.8998 225.714 37.9H237.286C240.718 37.8998 243.5 35.0251 243.5 31.479V19.521ZM246.5 31.479C246.5 36.7372 242.375 40.9998 237.286 41H225.714C220.625 40.9998 216.5 36.7372 216.5 31.479V19.521C216.5 14.2628 220.625 10.0002 225.714 10H237.286C242.375 10.0002 246.5 14.2628 246.5 19.521V31.479Z" fill="black"/>
<path d="M224.214 32.2761V24.3051C224.214 23.449 224.886 22.7551 225.714 22.7551C226.543 22.7551 227.214 23.449 227.214 24.3051V32.2761C227.214 33.1321 226.543 33.8261 225.714 33.8261C224.886 33.8261 224.214 33.1321 224.214 32.2761ZM235.785 32.2761V26.4969C235.785 26.4279 235.78 26.3732 235.776 26.3304C235.755 26.3274 235.732 26.3193 235.705 26.3167C235.42 26.2902 234.971 26.3208 234.289 26.4439C233.906 26.5132 233.478 26.6069 233 26.7209V32.2761C233 33.132 232.329 33.8258 231.5 33.8261C230.672 33.8261 230 33.1321 230 32.2761V24.3051C230 23.449 230.672 22.7551 231.5 22.7551C232.077 22.7552 232.577 23.0915 232.828 23.5846C233.158 23.5106 233.473 23.4434 233.772 23.3893C234.538 23.2511 235.295 23.167 235.974 23.2304C236.662 23.2945 237.451 23.5289 238.041 24.2082C238.625 24.8807 238.785 25.7276 238.785 26.4969V32.2761C238.785 33.1321 238.114 33.8261 237.285 33.8261C236.457 33.8257 235.785 33.1319 235.785 32.2761ZM224.214 18.9436V18.924C224.214 18.0679 224.886 17.374 225.714 17.374C226.543 17.374 227.214 18.0679 227.214 18.924V18.9436C227.214 19.7997 226.543 20.4936 225.714 20.4936C224.886 20.4936 224.214 19.7997 224.214 18.9436Z" fill="black"/>
</svg>
