<svg width="103" height="93" viewBox="0 0 103 93" fill="none" xmlns="http://www.w3.org/2000/svg">
<g clip-path="url(#clip0_160_18)">
<path d="M39.14 6H66.86C77.42 6 86 14.58 86 25.14V52.86C86 57.9362 83.9835 62.8046 80.394 66.394C76.8046 69.9835 71.9362 72 66.86 72H39.14C28.58 72 20 63.42 20 52.86V25.14C20 20.0638 22.0165 15.1954 25.606 11.606C29.1954 8.01653 34.0638 6 39.14 6ZM38.48 12.6C35.3292 12.6 32.3075 13.8516 30.0796 16.0796C27.8516 18.3075 26.6 21.3292 26.6 24.48V53.52C26.6 60.087 31.913 65.4 38.48 65.4H67.52C70.6708 65.4 73.6925 64.1484 75.9204 61.9204C78.1484 59.6925 79.4 56.6708 79.4 53.52V24.48C79.4 17.913 74.087 12.6 67.52 12.6H38.48ZM70.325 17.55C71.419 17.55 72.4682 17.9846 73.2418 18.7582C74.0154 19.5318 74.45 20.581 74.45 21.675C74.45 22.769 74.0154 23.8182 73.2418 24.5918C72.4682 25.3654 71.419 25.8 70.325 25.8C69.231 25.8 68.1818 25.3654 67.4082 24.5918C66.6346 23.8182 66.2 22.769 66.2 21.675C66.2 20.581 66.6346 19.5318 67.4082 18.7582C68.1818 17.9846 69.231 17.55 70.325 17.55ZM53 22.5C57.3761 22.5 61.5729 24.2384 64.6673 27.3327C67.7616 30.4271 69.5 34.6239 69.5 39C69.5 43.3761 67.7616 47.5729 64.6673 50.6673C61.5729 53.7616 57.3761 55.5 53 55.5C48.6239 55.5 44.4271 53.7616 41.3327 50.6673C38.2384 47.5729 36.5 43.3761 36.5 39C36.5 34.6239 38.2384 30.4271 41.3327 27.3327C44.4271 24.2384 48.6239 22.5 53 22.5ZM53 29.1C50.3744 29.1 47.8563 30.143 45.9996 31.9996C44.143 33.8563 43.1 36.3744 43.1 39C43.1 41.6256 44.143 44.1437 45.9996 46.0004C47.8563 47.857 50.3744 48.9 53 48.9C55.6256 48.9 58.1437 47.857 60.0004 46.0004C61.857 44.1437 62.9 41.6256 62.9 39C62.9 36.3744 61.857 33.8563 60.0004 31.9996C58.1437 30.143 55.6256 29.1 53 29.1Z" fill="black"/>
</g>
<defs>
<clipPath id="clip0_160_18">
<rect width="103" height="93" fill="white"/>
</clipPath>
</defs>
</svg>
