<svg width="95" height="53" viewBox="0 0 95 53" fill="none" xmlns="http://www.w3.org/2000/svg">
<g filter="url(#filter0_i_29_12969)">
<rect width="81.8675" height="45" rx="22.5" fill="#C19596"/>
</g>
<g filter="url(#filter1_d_29_12969)">
<rect x="34.6992" width="55.8434" height="45" rx="22.5" fill="#EACBCC"/>
</g>
<path d="M71.335 22.9461C71.335 25.1389 70.4639 27.2419 68.9133 28.7925C67.3627 30.343 65.2597 31.2141 63.0669 31.2141C60.8741 31.2141 58.7711 30.343 57.2205 28.7925C55.6699 27.2419 54.7988 25.1389 54.7988 22.9461C54.7988 20.7532 55.6699 18.6502 57.2205 17.0996C58.7711 15.5491 60.8741 14.678 63.0669 14.678C65.2597 14.678 67.3627 15.5491 68.9133 17.0996C70.4639 18.6502 71.335 20.7532 71.335 22.9461Z" fill="#C19596"/>
<path fill-rule="evenodd" clip-rule="evenodd" d="M63.0666 8.13223C63.3407 8.13223 63.6035 8.24112 63.7974 8.43494C63.9912 8.62876 64.1001 8.89164 64.1001 9.16574V10.5438C64.1001 10.8179 63.9912 11.0807 63.7974 11.2746C63.6035 11.4684 63.3407 11.5773 63.0666 11.5773C62.7925 11.5773 62.5296 11.4684 62.3358 11.2746C62.1419 11.0807 62.0331 10.8179 62.0331 10.5438V9.16574C62.0331 8.89164 62.1419 8.62876 62.3358 8.43494C62.5296 8.24112 62.7925 8.13223 63.0666 8.13223ZM52.5923 12.4716C52.7861 12.2781 53.0488 12.1693 53.3226 12.1693C53.5965 12.1693 53.8592 12.2781 54.053 12.4716L54.5945 13.0118C54.7829 13.2066 54.8872 13.4676 54.885 13.7386C54.8827 14.0096 54.7742 14.2689 54.5826 14.4606C54.3911 14.6523 54.1319 14.7611 53.861 14.7636C53.59 14.7661 53.3289 14.662 53.1338 14.4738L52.5923 13.9323C52.3987 13.7385 52.29 13.4758 52.29 13.2019C52.29 12.9281 52.3987 12.6654 52.5923 12.4716ZM73.5408 12.4716C73.7344 12.6654 73.8431 12.9281 73.8431 13.2019C73.8431 13.4758 73.7344 13.7385 73.5408 13.9323L72.9993 14.4738C72.8034 14.6564 72.5442 14.7558 72.2765 14.7511C72.0087 14.7463 71.7533 14.6379 71.5639 14.4485C71.3745 14.2592 71.2661 14.0037 71.2614 13.7359C71.2566 13.4682 71.356 13.2091 71.5386 13.0132L72.0801 12.4716C72.2739 12.2781 72.5366 12.1693 72.8105 12.1693C73.0844 12.1693 73.347 12.2781 73.5408 12.4716ZM48.2529 22.9459C48.2529 22.6718 48.3618 22.4089 48.5556 22.2151C48.7495 22.0212 49.0123 21.9124 49.2864 21.9124H50.6645C50.9386 21.9124 51.2014 22.0212 51.3953 22.2151C51.5891 22.4089 51.698 22.6718 51.698 22.9459C51.698 23.22 51.5891 23.4828 51.3953 23.6767C51.2014 23.8705 50.9386 23.9794 50.6645 23.9794H49.2864C49.0123 23.9794 48.7495 23.8705 48.5556 23.6767C48.3618 23.4828 48.2529 23.22 48.2529 22.9459ZM74.4352 22.9459C74.4352 22.6718 74.544 22.4089 74.7379 22.2151C74.9317 22.0212 75.1946 21.9124 75.4687 21.9124H76.8467C77.1208 21.9124 77.3837 22.0212 77.5775 22.2151C77.7713 22.4089 77.8802 22.6718 77.8802 22.9459C77.8802 23.22 77.7713 23.4828 77.5775 23.6767C77.3837 23.8705 77.1208 23.9794 76.8467 23.9794H75.4687C75.1946 23.9794 74.9317 23.8705 74.7379 23.6767C74.544 23.4828 74.4352 23.22 74.4352 22.9459ZM71.5386 31.4179C71.7324 31.2243 71.995 31.1156 72.2689 31.1156C72.5428 31.1156 72.8055 31.2243 72.9993 31.4179L73.5408 31.9594C73.6424 32.0541 73.7238 32.1682 73.7803 32.2949C73.8368 32.4217 73.8672 32.5586 73.8696 32.6973C73.8721 32.8361 73.8465 32.9739 73.7946 33.1026C73.7426 33.2313 73.6652 33.3482 73.5671 33.4464C73.4689 33.5445 73.352 33.6219 73.2233 33.6739C73.0946 33.7258 72.9568 33.7514 72.818 33.7489C72.6793 33.7465 72.5424 33.7161 72.4156 33.6596C72.2889 33.6031 72.1748 33.5217 72.0801 33.4201L71.5386 32.8786C71.345 32.6848 71.2363 32.4221 71.2363 32.1482C71.2363 31.8743 71.345 31.6117 71.5386 31.4179ZM54.5945 31.4179C54.7881 31.6117 54.8968 31.8743 54.8968 32.1482C54.8968 32.4221 54.7881 32.6848 54.5945 32.8786L54.053 33.4201C53.9584 33.5217 53.8443 33.6031 53.7175 33.6596C53.5907 33.7161 53.4539 33.7465 53.3151 33.7489C53.1763 33.7514 53.0385 33.7258 52.9098 33.6739C52.7811 33.6219 52.6642 33.5445 52.5661 33.4464C52.4679 33.3482 52.3905 33.2313 52.3386 33.1026C52.2866 32.9739 52.2611 32.8361 52.2635 32.6973C52.266 32.5586 52.2963 32.4217 52.3528 32.2949C52.4093 32.1682 52.4907 32.0541 52.5923 31.9594L53.1325 31.4179C53.2284 31.3218 53.3424 31.2457 53.4678 31.1937C53.5933 31.1417 53.7277 31.1149 53.8635 31.1149C53.9993 31.1149 54.1337 31.1417 54.2592 31.1937C54.3846 31.2457 54.4986 31.3218 54.5945 31.4179ZM63.0666 34.3145C63.3407 34.3145 63.6035 34.4233 63.7974 34.6172C63.9912 34.811 64.1001 35.0739 64.1001 35.348V36.726C64.1001 37.0001 63.9912 37.263 63.7974 37.4568C63.6035 37.6506 63.3407 37.7595 63.0666 37.7595C62.7925 37.7595 62.5296 37.6506 62.3358 37.4568C62.1419 37.263 62.0331 37.0001 62.0331 36.726V35.348C62.0331 35.0739 62.1419 34.811 62.3358 34.6172C62.5296 34.4233 62.7925 34.3145 63.0666 34.3145Z" fill="#C19596"/>
<defs>
<filter id="filter0_i_29_12969" x="0" y="0" width="81.8672" height="49" filterUnits="userSpaceOnUse" color-interpolation-filters="sRGB">
<feFlood flood-opacity="0" result="BackgroundImageFix"/>
<feBlend mode="normal" in="SourceGraphic" in2="BackgroundImageFix" result="shape"/>
<feColorMatrix in="SourceAlpha" type="matrix" values="0 0 0 0 0 0 0 0 0 0 0 0 0 0 0 0 0 0 127 0" result="hardAlpha"/>
<feOffset dy="4"/>
<feGaussianBlur stdDeviation="2"/>
<feComposite in2="hardAlpha" operator="arithmetic" k2="-1" k3="1"/>
<feColorMatrix type="matrix" values="0 0 0 0 0 0 0 0 0 0 0 0 0 0 0 0 0 0 0.25 0"/>
<feBlend mode="normal" in2="shape" result="effect1_innerShadow_29_12969"/>
</filter>
<filter id="filter1_d_29_12969" x="30.6992" y="0" width="63.8438" height="53" filterUnits="userSpaceOnUse" color-interpolation-filters="sRGB">
<feFlood flood-opacity="0" result="BackgroundImageFix"/>
<feColorMatrix in="SourceAlpha" type="matrix" values="0 0 0 0 0 0 0 0 0 0 0 0 0 0 0 0 0 0 127 0" result="hardAlpha"/>
<feOffset dy="4"/>
<feGaussianBlur stdDeviation="2"/>
<feComposite in2="hardAlpha" operator="out"/>
<feColorMatrix type="matrix" values="0 0 0 0 0 0 0 0 0 0 0 0 0 0 0 0 0 0 0.25 0"/>
<feBlend mode="normal" in2="BackgroundImageFix" result="effect1_dropShadow_29_12969"/>
<feBlend mode="normal" in="SourceGraphic" in2="effect1_dropShadow_29_12969" result="shape"/>
</filter>
</defs>
</svg>
