<?xml version="1.0" encoding="UTF-8"?>
<svg id="Layer_1" data-name="Layer 1" xmlns="http://www.w3.org/2000/svg" viewBox="0 0 788.76 131.69">
  <defs>
    <style>
      .cls-1 {
        stroke: #ffc8ca;
        stroke-miterlimit: 10;
        stroke-width: 4px;
      }

      .cls-1, .cls-2 {
        fill: #ffc8ca;
      }
    </style>
  </defs>
  <g>
    <g>
      <path class="cls-2" d="M29.75,53.21c4.34,0,7.89.66,10.65,1.97,2.76,1.31,4.93,2.98,6.51,5.02,1.58,2.03,2.67,4.27,3.26,6.72.59,2.44.88,4.84.88,7.19,0,2.71-.25,5.13-.75,7.26-.5,2.13-.93,3.59-1.29,4.41v-.14c-.63,1.36-1.61,2.44-2.92,3.26-1.31.81-2.63,1.38-3.94,1.7-1.31.32-2.42.45-3.32.41-.91-.04-1.27-.29-1.09-.75,1.27-2.53,2.17-5.13,2.71-7.8.54-2.67.81-5.27.81-7.8,0-2.08-.18-4.05-.54-5.9-.36-1.85-.95-3.46-1.76-4.82-.81-1.36-1.83-2.44-3.05-3.26-1.22-.81-2.69-1.22-4.41-1.22-1.36,0-2.62.81-3.8,2.44-1.18,1.63-2.24,3.66-3.19,6.11-.95,2.44-1.76,5.16-2.44,8.14-.68,2.98-1.27,5.79-1.76,8.41-.5,2.62-.88,4.93-1.15,6.92-.27,1.99-.45,3.26-.54,3.8-.18,1.54-.34,2.98-.47,4.34-.14,1.36-.2,2.62-.2,3.8,0,4.16.47,7.65,1.42,10.45.95,2.81,2.1,5.04,3.46,6.72,1.36,1.68,2.73,2.85,4.14,3.53,1.4.68,2.6,1.02,3.6,1.02,3.17,0,6.33-1.4,9.5-4.21,3.17-2.8,6.17-6.19,9.02-10.18,2.85-3.98,5.45-8.09,7.8-12.35,2.35-4.25,4.3-7.82,5.83-10.72.72-1.36,1.38-2.51,1.97-3.46.59-.95,1.06-1.6,1.42-1.97.81-.9,1.72-1.56,2.71-1.97.99-.41,1.9-.5,2.71-.27.81.23,1.47.75,1.97,1.56.5.81.66,1.95.47,3.39-.09.73-.61,2.31-1.56,4.75s-2.29,5.31-4,8.62c-1.72,3.3-3.8,6.76-6.24,10.38-2.44,3.62-5.22,6.94-8.34,9.97-3.12,3.03-6.56,5.59-10.31,7.67-3.75,2.08-7.76,3.17-12.01,3.26-5.25.18-9.68-.22-13.3-1.22-3.62-.99-6.6-2.31-8.95-3.93-2.35-1.63-4.16-3.46-5.43-5.5-1.27-2.04-2.17-4.07-2.71-6.11-.54-2.03-.86-3.93-.95-5.7-.09-1.76-.14-3.19-.14-4.27v-1.08c-.09-.63-.02-2.28.2-4.95.23-2.67.7-5.81,1.42-9.43.72-3.62,1.76-7.44,3.12-11.46,1.36-4.02,3.14-7.73,5.36-11.13,2.22-3.39,4.93-6.17,8.14-8.34,3.21-2.17,7.03-3.26,11.46-3.26Z"/>
      <path class="cls-2" d="M78.22,5.57c1.81-1.9,3.78-3.3,5.9-4.21C86.25.46,88.4,0,90.57,0c1.99,0,3.94.39,5.83,1.15,1.9.77,3.6,1.83,5.09,3.19,1.49,1.36,2.67,3.01,3.53,4.95.86,1.95,1.29,4.05,1.29,6.31-.09,9.95-1.08,19.15-2.98,27.61-1.9,8.46-4.23,16.12-6.99,23-2.76,6.88-5.68,12.87-8.75,17.98-3.08,5.11-5.75,9.25-8.01,12.41.36,4.61.88,8.53,1.56,11.74.68,3.21,1.36,5.81,2.04,7.8.68,1.99,1.29,3.44,1.83,4.34.54.91.9,1.36,1.08,1.36,1.27-.27,2.92-1.58,4.95-3.93,2.04-2.35,4.18-5.2,6.45-8.55,2.26-3.35,4.54-6.94,6.85-10.79,2.31-3.84,4.39-7.46,6.24-10.85,1.85-3.39,3.39-6.26,4.61-8.62,1.22-2.35,1.88-3.71,1.97-4.07.09-.72.54-1.31,1.36-1.76.81-.45,1.7-.68,2.65-.68s1.85.23,2.71.68c.86.45,1.47,1.22,1.83,2.31-.09,1.27-.7,3.28-1.83,6.04-1.13,2.76-2.58,5.86-4.34,9.29-1.76,3.44-3.71,7.03-5.83,10.79-2.13,3.75-4.16,7.24-6.11,10.45-1.95,3.21-3.69,5.99-5.22,8.34-1.54,2.35-2.62,3.85-3.26,4.48-1.9,1.81-4.03,3.19-6.38,4.14-2.35.95-4.75,1.42-7.19,1.42-2.08,0-4.05-.36-5.9-1.09-1.85-.72-3.42-1.76-4.68-3.12-2.44-2.8-4.57-6.04-6.38-9.7-1.81-3.66-3.28-7.6-4.41-11.8-1.13-4.21-1.99-8.59-2.58-13.16-.59-4.57-.88-9.2-.88-13.91,0-7.78.56-15.56,1.7-23.34,1.13-7.78,2.56-14.95,4.27-21.51,1.72-6.56,3.62-12.26,5.7-17.1,2.08-4.84,4.02-8.25,5.83-10.24ZM79.17,86.71c2.44-4.79,4.5-9.7,6.17-14.72,1.67-5.02,3.07-9.95,4.21-14.79,1.13-4.84,2.01-9.5,2.65-13.97.63-4.48,1.11-8.55,1.42-12.21.32-3.66.52-6.83.61-9.5.09-2.67.18-4.63.27-5.9v-1.22c.09-5.34-.5-8.01-1.76-8.01-.73,0-1.52.84-2.37,2.51-.86,1.67-1.65,3.96-2.37,6.85-1.45,6.6-2.71,13.05-3.8,19.33-1.09,6.29-2.01,12.28-2.78,17.98-.77,5.7-1.34,11.01-1.7,15.94-.36,4.93-.54,9.29-.54,13.09v4.61Z"/>
      <path class="cls-2" d="M148.89,70.83c0-.32.04-.52.12-.6.08-.4.38-.87.91-1.39.52-.52,1.17-1.01,1.93-1.45.76-.44,1.63-.8,2.6-1.09.97-.28,1.93-.42,2.9-.42,1.29,0,2.44.3,3.44.91,1.01.6,1.63,1.67,1.87,3.2.32,1.61.48,3.79.48,6.53,0,2.9-.14,6.07-.42,9.49-.28,3.43-.63,6.91-1.03,10.46-.32,3.38-.62,6.63-.91,9.73-.28,3.1-.42,5.9-.42,8.4s.2,4.7.61,6.35c.4,1.65,1.09,2.4,2.05,2.24.73-.08,1.59-.95,2.6-2.6,1.01-1.65,2.07-3.75,3.2-6.29,1.13-2.54,2.28-5.38,3.45-8.52,1.17-3.14,2.3-6.29,3.38-9.43,1.09-3.14,2.1-6.12,3.02-8.95.93-2.82,1.71-5.16,2.36-7.01l1.21-3.99c.24-.56.8-.93,1.69-1.09.89-.16,1.81-.16,2.78,0,.97.16,1.77.44,2.42.85.64.4.85.85.6,1.33v-.24l-.97,3.39c-.48,2.18-1.17,4.9-2.05,8.16-.89,3.26-1.98,6.73-3.26,10.4-1.29,3.67-2.74,7.36-4.35,11.06-1.61,3.71-3.43,7.03-5.44,9.97-2.02,2.94-4.21,5.32-6.59,7.13-2.38,1.81-4.9,2.68-7.56,2.6-1.77-.24-3.32-.93-4.65-2.06-1.33-1.13-2.48-2.54-3.44-4.23-.97-1.69-1.79-3.65-2.48-5.86-.69-2.22-1.19-4.57-1.51-7.07-1.13,2.1-2.66,4.01-4.59,5.74-1.93,1.73-4.35,2.8-7.25,3.2-5.56.32-9.93-.52-13.12-2.54-3.19-2.01-5.56-4.51-7.13-7.5-1.57-2.98-2.56-6.14-2.96-9.49-.4-3.34-.64-6.23-.72-8.64,0-1.61.1-3.69.3-6.23.2-2.54.66-5.26,1.39-8.16.73-2.9,1.71-5.82,2.96-8.76,1.25-2.94,2.9-5.62,4.96-8.04,2.06-2.42,4.57-4.41,7.56-5.98,2.98-1.57,6.49-2.44,10.52-2.6,3.22-.08,5.86.2,7.92.85,2.06.65,3.69,1.45,4.9,2.42,1.21.97,2.09,1.98,2.66,3.02.56,1.05.97,1.98,1.21,2.78l.36,1.21v-.12c.64,1.37.54,2.42-.3,3.14-.85.73-1.96,1.09-3.32,1.09-.81,0-1.65-.18-2.54-.54-.89-.36-1.65-.91-2.3-1.63-.4-.32-.6-.56-.6-.73s-.08-.36-.24-.6c-.4-.89-1.07-1.89-1.99-3.02-.93-1.13-2.44-1.65-4.53-1.57-1.21.08-2.52.89-3.93,2.42-1.41,1.53-2.74,3.71-3.99,6.53-1.25,2.82-2.36,6.23-3.32,10.22s-1.61,8.52-1.93,13.6c0,.48-.02,1.13-.06,1.93-.04.81-.06,1.41-.06,1.81,0,4.76.36,8.36,1.09,10.82.73,2.46,1.57,4.23,2.54,5.32.97,1.09,1.93,1.67,2.9,1.75.97.08,1.69.12,2.18.12.97,0,1.97-.48,3.02-1.45,1.05-.97,2.03-2.16,2.96-3.57.93-1.41,1.79-2.94,2.6-4.59.8-1.65,1.53-3.16,2.18-4.53,0-3.06.08-6.06.24-9.01.16-2.94.36-5.66.6-8.16.24-2.5.48-4.65.73-6.47s.44-3.12.6-3.93Z"/>
      <path class="cls-2" d="M181.77,62.47c0-.36.04-.59.14-.68,0-1.36.86-2.55,2.58-3.59,1.72-1.04,3.62-1.56,5.7-1.56,1.54,0,2.96.41,4.27,1.22,1.31.81,2.15,2.13,2.51,3.93.27,1.27.43,2.65.47,4.14.04,1.49.07,3.1.07,4.82,0,2.98-.09,6.2-.27,9.63-.18,3.44-.41,6.88-.68,10.31-.18,3.44-.34,6.76-.47,9.97-.14,3.21-.2,6.22-.2,9.02,0,4.34.22,7.89.68,10.65.45,2.76,1.4,4.05,2.85,3.87.81-.18,1.76-1.2,2.85-3.05,1.09-1.85,2.24-4.25,3.46-7.19,1.22-2.94,2.44-6.26,3.66-9.97,1.22-3.71,2.42-7.39,3.59-11.06,1.18-3.66,2.28-7.19,3.32-10.58,1.04-3.39,1.92-6.31,2.65-8.75l1.76-5.83c.36-.99,1.02-1.65,1.97-1.97.95-.32,1.88-.41,2.78-.27.9.14,1.72.5,2.44,1.09.72.59,1.08,1.34,1.08,2.24,0,1.99-.34,4.91-1.02,8.75-.68,3.85-1.65,8.05-2.92,12.62-1.27,4.57-2.85,9.23-4.75,13.97-1.9,4.75-4.09,9.05-6.58,12.89-2.49,3.85-5.22,7.01-8.21,9.5-2.98,2.49-6.24,3.73-9.77,3.73-3.17-.36-5.81-1.63-7.94-3.8-2.13-2.17-3.85-4.91-5.16-8.21-1.31-3.3-2.24-6.99-2.78-11.06-.54-4.07-.81-8.23-.81-12.48,0-3.62.12-7.19.34-10.72.23-3.53.5-6.76.81-9.7.32-2.94.63-5.45.95-7.53.32-2.08.52-3.53.61-4.34Z"/>
      <path class="cls-2" d="M262.5,58.19c1.54-.63,3.03-.86,4.48-.68,1.45.18,2.71.57,3.8,1.15,1.08.59,1.97,1.31,2.65,2.17.68.86,1.02,1.65,1.02,2.37,0,.36-.11.93-.34,1.7-.23.77-.47,1.65-.75,2.65-.54,1.63-1.11,3.57-1.7,5.83-.59,2.26-1.11,4.55-1.56,6.85-.45,2.31-.79,4.52-1.02,6.65-.23,2.13-.2,3.87.07,5.22l1.09,3.93c.18.81.38,1.61.61,2.37.23.77.34,1.38.34,1.83,0,1.45-.61,2.33-1.83,2.65-1.22.32-3.41-.07-6.58-1.15-2.63-.9-4.59-3.05-5.9-6.45-1.31-3.39-1.97-7.17-1.97-11.33,0-1.27.05-2.46.14-3.6.09-1.13.22-2.28.41-3.46-2.44,2.63-4.64,5.56-6.58,8.82-1.95,3.26-3.66,6.58-5.16,9.97-1.49,3.39-2.8,6.74-3.93,10.04-1.13,3.3-2.06,6.31-2.78,9.02v.54c0,2.35-.09,4.37-.27,6.04-.18,1.67-.45,2.83-.81,3.46-.73,1.63-1.76,2.85-3.12,3.66-1.36.81-2.85,1.22-4.48,1.22s-3.12-.45-4.48-1.36c-1.36-.9-2.4-2.35-3.12-4.34-.36-.99-.68-2.62-.95-4.88-.27-2.26-.52-4.91-.75-7.94-.22-3.03-.38-6.31-.47-9.84-.09-3.53-.14-7.1-.14-10.72,0-3.34.05-6.6.14-9.77.09-3.16.23-6.04.41-8.62.18-2.58.41-4.79.68-6.65.27-1.85.63-3.14,1.08-3.87.81-1.54,1.94-2.69,3.39-3.46,1.45-.77,2.85-1.15,4.21-1.15,1.63,0,3.1.66,4.41,1.97,1.31,1.31,1.83,3.19,1.56,5.63,0,.73.02,1.72.07,2.98.04,1.27.11,2.69.2,4.27.09,1.58.18,3.26.27,5.02.09,1.76.22,3.51.41,5.22l.95,13.57c1.09-3.71,2.44-7.46,4.07-11.26,1.63-3.8,3.5-7.4,5.63-10.79,2.12-3.39,4.57-6.44,7.33-9.16,2.76-2.71,5.86-4.84,9.29-6.38Z"/>
      <path class="cls-2" d="M309.04,51.85c3.71,0,6.87.41,9.5,1.22,2.62.81,4.77,1.83,6.44,3.05,1.67,1.22,2.98,2.58,3.93,4.07.95,1.49,1.65,2.98,2.1,4.48.45,1.49.7,2.9.75,4.21.05,1.31.02,2.37-.07,3.19-.91,5.34-2.51,9.7-4.82,13.09-2.31,3.39-4.93,6.04-7.87,7.94-2.94,1.9-6.04,3.21-9.29,3.93-3.26.73-6.29,1.09-9.09,1.09-2.53,0-4.61-.14-6.24-.41v.82c0,3,.2,5.87.61,8.6.41,2.73,1.04,5.12,1.9,7.17.86,2.05,1.94,3.69,3.26,4.91,1.31,1.23,2.83,1.84,4.55,1.84,3.71-.18,7.17-1.04,10.38-2.58,3.21-1.54,6.15-3.48,8.82-5.83,2.67-2.35,5.09-4.97,7.26-7.87,2.17-2.89,4.07-5.79,5.7-8.68,1.63-2.89,3.03-5.65,4.21-8.28,1.18-2.62,2.12-4.79,2.85-6.51l1.22-2.85c.45-.63,1.17-1.13,2.17-1.49.99-.36,1.97-.54,2.92-.54s1.74.27,2.37.81c.63.54.9,1.45.81,2.71-.27,1.54-.95,3.82-2.04,6.85-1.09,3.03-2.62,6.4-4.61,10.11-1.99,3.71-4.37,7.49-7.12,11.33-2.76,3.85-5.88,7.37-9.36,10.56-3.48,3.2-7.33,5.8-11.53,7.8-4.21,2-8.71,2.96-13.5,2.87-4.43-.09-8.23-.77-11.4-2.04-3.17-1.27-5.83-2.85-8.01-4.75-2.17-1.9-3.91-4.02-5.22-6.38-1.31-2.35-2.31-4.59-2.98-6.72-.68-2.12-1.13-4.02-1.36-5.7-.22-1.67-.34-2.87-.34-3.6v-1.09c0-1.36.07-3.46.2-6.31.14-2.85.52-6.04,1.15-9.57.63-3.53,1.63-7.17,2.98-10.92,1.36-3.75,3.26-7.17,5.7-10.24,2.44-3.07,5.54-5.58,9.29-7.53,3.75-1.94,8.34-2.87,13.77-2.78ZM312.29,59.04c-2.44.45-4.7,1.72-6.78,3.8-2.08,2.08-3.89,4.73-5.43,7.94-1.54,3.21-2.78,6.76-3.73,10.65-.95,3.89-1.61,7.82-1.97,11.8.54,0,1.06.02,1.56.07.5.05,1.11.07,1.83.07,1.9,0,3.98-.29,6.24-.88,2.26-.59,4.43-1.65,6.51-3.19,2.08-1.54,3.84-3.64,5.29-6.31,1.45-2.67,2.31-6.13,2.58-10.38.09-1.36.02-2.83-.2-4.41-.23-1.58-.61-3.03-1.15-4.34-.54-1.31-1.2-2.42-1.97-3.32-.77-.9-1.7-1.4-2.78-1.49Z"/>
    </g>
    <path class="cls-2" d="M208.96,18.14c-2.74,1.25-7.68,3.95-12.01,9.24-5,6.09-6.55,12.38-7.09,15.41-.51-2.96-2.05-9.44-7.29-15.61-4.54-5.35-9.69-7.91-12.43-9.05,2.63-.65,8.99-2.6,14.21-8.48,3.18-3.58,4.73-7.27,5.51-9.65.5,2.24,1.71,6.22,4.92,10.04,5.2,6.19,12.04,7.7,14.18,8.09Z"/>
  </g>
  <g>
    <g>
      <path class="cls-2" d="M478.42,77.81c-6.4,4.96-11.74,11.17-15.55,18.31-.4.74-.71,1.37-.89,1.8-1.08,2.62-1.66,5.2-1.74,7.73,0,1.49.36,3.16,1.07,5.04.7,1.88,1.82,3.59,3.36,5.16,1.53,1.57,3.43,2.87,5.71,3.91,2.27,1.04,4.93,1.47,7.99,1.28,4.01-.19,7.59-1.1,10.73-2.72,3.14-1.63,5.94-4.08,8.42-7.36,2.48-3.28,4.73-7.43,6.76-12.46,2.03-5.03,4.04-10.99,6.03-17.89.26-.79,1-1.29,2.22-1.51,1.22-.22,2.49-.21,3.8.05s2.45.73,3.41,1.43c.96.7,1.31,1.57,1.06,2.61-1.55,5.77-3.47,11.34-5.77,16.71-2.29,5.38-5.13,10.21-8.52,14.5-3.39,4.29-7.39,7.8-12.01,10.52-4.62,2.72-9.93,4.31-15.96,4.77-5.85-.07-10.83-1.31-14.94-3.74-4.11-2.43-7.44-5.3-9.98-8.61-.16,3.93-.42,6.28-.76,7.07-.69,1.57-1.69,2.76-3,3.55-1.31.79-2.7,1.19-4.19,1.19-1.66,0-3.14-.42-4.45-1.29-1.31-.87-2.32-2.26-3.03-4.18-.26-.61-.46-1.74-.6-3.4-.14-1.66-.27-3.73-.41-6.22-.14-2.49-.24-5.3-.29-8.44-.05-3.14-.09-6.5-.1-10.08-.02-5.06,0-10.43.07-16.1.07-5.67.18-11.3.33-16.89.16-5.58.33-10.98.53-16.17.2-5.19.45-9.86.74-14.01.29-4.15.58-7.57.88-10.28.29-2.71.62-4.41.96-5.11.78-1.49,1.87-2.6,3.26-3.35,1.39-.75,2.74-1.12,4.05-1.13,1.57,0,3.01.62,4.33,1.88,1.31,1.26,1.8,3.07,1.46,5.43v3.4c.02,2.36.03,5.56.05,9.62s.08,8.66.18,13.81c.11,6.28.2,12.98.27,20.1.07,7.11.12,14.07.14,20.88v.92c2.61-3.68,5.56-7.39,8.87-11.16,3.3-3.76,6.52-7.2,9.65-10.31,3.13-3.11,5.98-5.67,8.55-7.69,2.57-2.02,4.42-3.11,5.55-3.29,1.74-.18,3.1-.08,4.06.31.96.39,1.68.96,2.17,1.69.48.74.72,1.61.73,2.62s-.04,1.99-.12,2.95c0,0,0,0,0,.01-.87,2.25-2.27,4.26-4.18,5.73l-10.87,8.42Z"/>
      <path class="cls-2" d="M788.29,114.14c-3.39,4.29-7.39,7.8-12.01,10.52-4.62,2.72-9.93,4.31-15.96,4.77-5.85-.07-10.83-1.31-14.94-3.74-4.11-2.43-7.44-5.3-9.98-8.61-.16,3.93-.42,6.28-.76,7.07-.69,1.57-1.69,2.76-3,3.55-1.31.79-2.7,1.19-4.19,1.19-1.66,0-3.14-.42-4.45-1.29-1.31-.87-2.32-2.26-3.03-4.18-.26-.61-.46-1.74-.6-3.4-.14-1.66-.27-3.73-.41-6.22-.14-2.49-.24-5.3-.29-8.44-.05-3.14-.09-6.5-.1-10.08-.02-5.06,0-10.43.07-16.1.07-5.67.18-11.3.33-16.89.16-5.58.33-10.98.53-16.17.2-5.19.45-9.86.74-14.01.29-4.15.58-7.57.88-10.28.29-2.71.62-4.41.96-5.11.78-1.49,1.87-2.6,3.26-3.35,1.39-.75,2.74-1.12,4.05-1.13,1.57,0,3.01.62,4.33,1.88,1.31,1.26,1.8,3.07,1.46,5.43v3.4c.02,2.36.03,5.56.05,9.62.01,4.06.08,8.66.18,13.81.11,6.28.2,12.98.27,20.1.07,7.11.12,14.07.14,20.88v.92c2.61-3.68,5.56-7.39,8.87-11.16,3.3-3.76,6.52-7.2,9.65-10.31,3.13-3.11,5.98-5.67,8.55-7.69,2.57-2.02,4.42-3.11,5.55-3.29,1.74-.18,3.1-.08,4.06.31.96.39,1.68.96,2.17,1.69.48.74.72,1.61.73,2.62s-.04,1.99-.12,2.95c0,0,0,0,0,.01-.87,2.25-2.27,4.26-4.18,5.73l-10.87,8.42c-6.4,4.96-11.74,11.17-15.55,18.31-.4.74-.71,1.37-.89,1.81-1.08,2.62-1.66,5.2-1.74,7.73,0,1.49.36,3.16,1.07,5.04.7,1.88,1.82,3.59,3.36,5.16,1.53,1.57,3.43,2.87,5.71,3.91,2.27,1.04,4.93,1.47,7.99,1.28,4.01-.19,7.59-1.09,10.73-2.72,3.14-1.63,5.94-4.08,8.42-7.36,2.45-3.43,6.55-3.78,8.32-2.12,1.23,1.16,1.46,3.43.67,5.56Z"/>
      <path class="cls-2" d="M505.82,83.04c.69-.44,1.44-.73,2.22-.86s1.52-.2,2.22-.2c.26-1.22.71-2.77,1.36-4.65.65-1.88,1.71-3.67,3.19-5.38,1.48-1.71,3.52-3.15,6.14-4.34s6.02-1.79,10.21-1.8c4.27.07,7.81.95,10.61,2.65,2.8,1.69,5.01,3.8,6.63,6.33,1.62,2.53,2.72,5.25,3.3,8.17.58,2.92.83,5.61.75,8.05v1.44s-.24,4.58-.24,4.58c2.96-1.23,5.82-2.84,8.56-4.81,2.74-1.97,5.03-4.49,6.85-7.55h-.13c.43-.7,1.13-1.36,2.09-1.97.96-.61,1.83-.92,2.62-.93.96,0,1.59.32,1.9.98.31.65.07,1.85-.71,3.6-1.21,2.62-2.67,4.96-4.36,7.02-1.69,2.06-3.52,3.9-5.48,5.52-1.96,1.62-3.98,3.05-6.07,4.28-2.09,1.23-4.18,2.24-6.27,3.03-.6,2.97-1.51,5.98-2.72,9.04-1.21,3.06-2.86,5.82-4.94,8.27-2.09,2.45-4.74,4.45-7.97,5.98-3.22,1.54-7.15,2.27-11.77,2.2-4.89-.07-8.93-.84-12.12-2.31-3.19-1.47-5.73-3.36-7.61-5.67-1.89-2.31-3.2-4.94-3.96-7.91-.75-2.96-1.13-5.97-1.15-9.03,0-2.79.24-5.52.76-8.19.51-2.66,1.12-5.09,1.81-7.27.69-2.18,1.45-4,2.27-5.44.82-1.44,1.5-2.38,2.02-2.82ZM537.07,109.12c-5.24-.16-9.52-.95-12.84-2.38-3.32-1.43-5.99-3.14-8-5.14v2.23c.02,2.27.17,4.52.49,6.74.31,2.22.89,4.23,1.72,6.02.83,1.79,1.95,3.22,3.35,4.31,1.4,1.09,3.19,1.67,5.37,1.75,1.57,0,3.01-.38,4.32-1.13,1.31-.75,2.46-1.75,3.46-3.02,1-1.27,1.89-2.71,2.67-4.33.78-1.62,1.47-3.3,2.08-5.05-.52,0-.98.03-1.37.07-.39.05-.81.03-1.24-.06ZM536.52,100.08c1.31.17,3.05.03,5.24-.41.26-1.66.45-3.08.57-4.26.13-1.18.19-1.94.19-2.29.08-2.79-.04-5.54-.36-8.25-.32-2.7-.93-5.1-1.86-7.19-.92-2.09-2.2-3.72-3.81-4.9-1.62-1.17-3.69-1.67-6.22-1.48-1.4.09-2.7.64-3.92,1.65-1.22,1.01-2.24,2.19-3.06,3.55-.82,1.36-1.41,2.78-1.75,4.26-.34,1.49-.38,2.8-.12,3.93l.53,2.22c.18,1.22.47,2.6.87,4.12.4,1.53,1.1,2.94,2.11,4.25,1.01,1.31,2.43,2.41,4.27,3.32,1.84.91,4.28,1.4,7.34,1.48Z"/>
      <path class="cls-2" d="M573.44,8.09c1.74-1.84,3.63-3.2,5.68-4.08,2.05-.88,4.12-1.32,6.21-1.33,1.92,0,3.8.36,5.63,1.09,1.84.74,3.48,1.75,4.92,3.06,1.44,1.3,2.58,2.89,3.42,4.77.84,1.87,1.26,3.9,1.27,6.08-.05,9.6-.98,18.48-2.79,26.65-1.81,8.17-4.03,15.57-6.66,22.21-2.64,6.64-5.43,12.44-8.38,17.38-2.95,4.94-5.51,8.94-7.68,12.01.36,4.45.88,8.22,1.55,11.32.67,3.1,1.33,5.6,1.99,7.52.66,1.92,1.25,3.31,1.78,4.18.53.87.88,1.31,1.05,1.31,1.22-.27,2.81-1.54,4.76-3.81,1.96-2.28,4.02-5.03,6.19-8.27,2.17-3.24,4.36-6.71,6.58-10.43,2.21-3.72,4.21-7.22,5.98-10.49,1.78-3.28,3.25-6.05,4.42-8.33,1.17-2.27,1.8-3.58,1.88-3.93.08-.7.52-1.27,1.3-1.71.79-.44,1.63-.66,2.55-.66s1.79.21,2.62.65c.83.44,1.42,1.17,1.78,2.22-.08,1.22-.67,3.17-1.75,5.83-1.08,2.67-2.47,5.66-4.16,8.98-1.69,3.32-3.56,6.8-5.59,10.43-2.04,3.63-3.99,7-5.86,10.1-1.87,3.11-3.54,5.8-5.01,8.07-1.48,2.28-2.52,3.72-3.13,4.33-1.83,1.75-3.87,3.09-6.14,4.02-2.27.92-4.58,1.39-6.93,1.4-2.01,0-3.91-.34-5.7-1.03-1.79-.69-3.3-1.69-4.53-2.99-2.37-2.7-4.43-5.81-6.19-9.34-1.76-3.53-3.19-7.32-4.29-11.37-1.11-4.05-1.95-8.28-2.53-12.69-.58-4.4-.88-8.88-.9-13.42-.03-7.51.49-15.01,1.56-22.52,1.06-7.51,2.41-14.43,4.05-20.77,1.63-6.33,3.45-11.84,5.44-16.51,1.99-4.68,3.85-7.98,5.59-9.9ZM574.64,86.38c2.34-4.63,4.31-9.38,5.91-14.23,1.6-4.85,2.93-9.61,4.01-14.28,1.07-4.67,1.91-9.17,2.51-13.49.59-4.32,1.04-8.25,1.33-11.79.29-3.54.48-6.59.56-9.17.08-2.57.16-4.47.24-5.7v-1.18c.06-5.15-.51-7.72-1.73-7.72-.7,0-1.46.81-2.28,2.43-.83,1.62-1.58,3.82-2.27,6.62-1.37,6.38-2.57,12.6-3.6,18.67-1.03,6.07-1.9,11.85-2.62,17.36-.72,5.5-1.25,10.63-1.58,15.39-.33,4.76-.49,8.97-.48,12.63l.02,4.45Z"/>
      <path class="cls-2" d="M625.4,108.92c.08.79.16,1.47.24,2.02.08.56,1.05,5.21-.21,6.83-1.26,1.63-3.2,2.45-5.82,2.46-.71,0-1.47-.07-2.26-.23-.79-.16-1.63-.43-2.5-.82-.87-.39-1.59-1.26-2.15-2.61-.56-1.34-1-3.01-1.33-4.99-.32-1.98-.57-4.22-.74-6.71-.17-2.5-.26-5.09-.27-7.79-.01-3.09.08-6.22.26-9.39.19-3.17.43-6.16.74-8.98.31-2.81.66-5.29,1.04-7.43.39-2.14.91-6.36,1.58-6.72.67-.36,1.56-.66,2.67-.9,1.11-.24,2.33-.36,3.68-.37,1.66,0,3.13.25,4.4.76,1.27.51,1.83,1.48,1.67,2.91,0,.16-.23,1.39-.23,1.78l-1.89,11.54c1.25-4.2,6.59-12.62,9.64-16.16,2.73-3.24,7.31-8.51,8.82-9.54,2.99-2.03,5.35-2.86,7.97-2.87,2.3,0,4.2.48,5.71,1.47,1.51.99,2.72,2.35,3.64,4.09.92,1.74,1.58,3.82,1.98,6.23.4,2.42.61,5.09.62,8.02.02,4.83-.35,8.84-1.08,14.51-.73,5.67-1.49,11.24-2.26,16.71-.78,4.6-2.69,13.13-2.68,16.06,0,2.3.19,4.1.55,5.41.36,1.31,1.02,1.96,1.97,1.95.24-.24.87-1.51,1.89-3.81,1.02-2.3,2.26-5.16,3.71-8.57,1.45-3.41,3.01-7.1,4.66-11.07,1.65-3.97,3.22-7.74,4.71-11.31.78-1.98,1.55-3.85,2.3-5.59.75-1.74,1.42-3.29,2-4.64.59-1.35,1.08-2.44,1.47-3.27.39-.83.67-1.37.83-1.61.47-.63,1.2-1.09,2.19-1.37.99-.28,1.94-.34,2.85-.19.91.16,1.65.51,2.2,1.06.56.55.68,1.35.37,2.38l-7.3,18.69c-2.59,6.83-4.81,12.48-6.65,16.96-1.85,4.48-3.68,8.04-5.49,10.66-1.81,2.62-3.77,4.41-5.86,5.37-2.1.96-4.69,1.24-7.78.86-2.14-.23-3.95-.9-5.42-2-1.47-1.11-2.65-2.55-3.52-4.33-.88-1.78-1.52-3.84-1.92-6.17-.4-2.33-.25-9.39.48-14.5.73-5.11,1.45-10.09,2.15-14.93.62-3.96,1.18-6.5,1.69-10.11.5-3.61.75-6.64.74-9.1,0-1.9-.17-3.41-.49-4.52-.32-1.11-.84-1.7-1.55-1.78-.79-.07-1.76.84-3.08,2.63-5.04,6.8-17.27,19.5-18.88,38.44-.16,1.82-.22,3.39-.1,4.6Z"/>
      <path class="cls-2" d="M682.5,62.87c0-.35.04-.57.13-.66,0-1.31.82-2.47,2.48-3.48,1.65-1.01,3.48-1.52,5.49-1.53,1.48,0,2.86.38,4.13,1.16,1.27.78,2.08,2.04,2.44,3.79.27,1.22.42,2.55.47,3.99.05,1.44.08,2.99.08,4.65.01,2.88-.07,5.98-.23,9.3-.16,3.32-.37,6.64-.62,9.95-.16,3.32-.31,6.53-.42,9.62-.12,3.1-.18,6-.17,8.71.01,4.19.24,7.62.69,10.28.44,2.66,1.37,3.9,2.76,3.72.78-.18,1.7-1.16,2.74-2.96,1.04-1.79,2.15-4.11,3.31-6.95,1.17-2.84,2.33-6.05,3.5-9.63,1.16-3.58,2.31-7.14,3.43-10.68,1.12-3.54,2.18-6.95,3.17-10.22.99-3.28,1.83-6.09,2.52-8.45l1.68-5.63c.34-.96.98-1.6,1.89-1.91.92-.31,1.81-.4,2.68-.27.87.13,1.66.48,2.36,1.04.7.57,1.05,1.29,1.06,2.16,0,1.92-.31,4.74-.95,8.45-.64,3.71-1.57,7.78-2.77,12.18-1.21,4.41-2.72,8.91-4.54,13.5-1.82,4.59-3.92,8.74-6.31,12.46-2.39,3.72-5.02,6.78-7.89,9.19-2.87,2.41-6.01,3.62-9.41,3.63-3.06-.34-5.61-1.55-7.67-3.64-2.06-2.09-3.73-4.72-5-7.9-1.28-3.18-2.18-6.73-2.72-10.66-.54-3.93-.81-7.94-.83-12.04-.01-3.49.09-6.94.29-10.34.21-3.4.46-6.52.75-9.36.3-2.84.59-5.26.89-7.27.3-2.01.49-3.41.57-4.19Z"/>
    </g>
    <path class="cls-1" d="M392.45,109.03c.6.12,6.46-3.64,5.59-3.16-.97.25-4.87,3.88-5.5,4.88-.63,1-.94,2.16-.93,3.49,0,1.08.27,2.16.81,3.24.54,1.08,1.43,2.04,2.7,2.89,1.26.85,2.92,1.51,4.98,1.98,2.06.47,4.61.64,7.66.5,3.92-.18,7.01-.98,9.28-2.4,2.27-1.42,3.54-3.31,3.83-5.68.14-1.33-.19-2.9-1-4.7s-1.91-3.75-3.32-5.84c-1.41-2.09-3.03-4.29-4.85-6.59s-3.68-4.59-5.58-6.86c-1.56-1.86-3.05-3.7-4.48-5.5-1.43-1.8-2.73-3.51-3.9-5.13-1.17-1.62-2.14-3.13-2.92-4.54-.78-1.41-1.29-2.65-1.54-3.73-.1-.5-.19-1-.26-1.49-.07-.5-.11-.98-.11-1.43,0-2.41.62-4.51,1.88-6.3,1.26-1.79,2.91-3.25,4.95-4.38,2.04-1.13,4.35-1.95,6.91-2.45,2.56-.51,5.17-.68,7.84-.53,2.08.12,3.91.43,5.48.95,1.57.51,2.89,1.11,3.96,1.79,1.07.68,1.87,1.34,2.4,1.98.53.64.8,1.15.8,1.52,0,1.04-.32,1.67-.97,1.9-.65.23-1.44-.21-2.36-1.33-.29-.33-.73-.72-1.31-1.18-.58-.45-1.3-.89-2.15-1.3-.85-.41-1.83-.74-2.94-.99-1.11-.25-2.32-.34-3.63-.3-.87,0-1.94.13-3.19.39-1.26.25-2.46.72-3.62,1.38-1.16.67-2.15,1.6-2.96,2.78-.82,1.19-1.22,2.71-1.22,4.58,0,.46.04.98.11,1.56.07.58.16,1.16.26,1.74.44,1.45,1.5,3.35,3.18,5.69,1.68,2.34,3.68,4.9,6.01,7.67,1.85,2.36,3.75,4.83,5.72,7.39,1.97,2.57,3.78,5.14,5.43,7.71,1.65,2.57,3.02,5.09,4.09,7.55,1.07,2.47,1.66,4.76,1.77,6.88.05,1.45-.38,2.94-1.29,4.46-.91,1.52-2.3,2.89-4.16,4.13-1.86,1.23-4.18,2.24-6.96,3.01-2.78.78-5.98,1.17-9.61,1.19-3.92-.03-7.2-.37-9.83-1.02-2.63-.66-4.74-1.51-6.35-2.56-1.61-1.05-2.75-2.24-3.44-3.57-.68-1.33-1.03-2.65-1.03-3.98,0-1.91.41-2.72,1.9-3.91,2.78-2.22,5.9-3.24,7.45-3.86-.58.25-4.49,2.07-4.51,2.38"/>
    <path class="cls-2" d="M708.12,17.86c-2.6,1.2-7.26,3.77-11.35,8.8-4.71,5.79-6.16,11.75-6.67,14.63-.5-2.8-1.98-8.94-6.96-14.77-4.32-5.05-9.21-7.46-11.81-8.53,2.49-.62,8.51-2.49,13.43-8.09,3-3.4,4.46-6.9,5.19-9.16.48,2.12,1.64,5.89,4.7,9.5,4.95,5.85,11.44,7.26,13.47,7.62Z"/>
  </g>
</svg>