<svg width="103" height="93" viewBox="0 0 103 93" fill="none" xmlns="http://www.w3.org/2000/svg">
<g clip-path="url(#clip0_160_22)">
<path d="M79.5 26.5776C79.4995 18.9135 73.472 12.7005 66.0366 12.7H40.9634C33.528 12.7005 27.5005 18.9135 27.5 26.5776V52.4224C27.5005 60.0865 33.528 66.2995 40.9634 66.3H66.0366C73.472 66.2995 79.4995 60.0865 79.5 52.4224V26.5776ZM86 52.4224C85.9995 63.7868 77.0619 72.9995 66.0366 73H40.9634C29.9381 72.9995 21.0005 63.7868 21 52.4224V26.5776C21.0005 15.2131 29.9381 6.00051 40.9634 6H66.0366C77.0619 6.00051 85.9995 15.2131 86 26.5776V52.4224Z" fill="black"/>
<path d="M37.7143 54.145V36.9174C37.7143 35.0672 39.1694 33.5674 40.9643 33.5674C42.7592 33.5674 44.2143 35.0672 44.2143 36.9174V54.145C44.2143 55.9952 42.7592 57.495 40.9643 57.495C39.1694 57.495 37.7143 55.9952 37.7143 54.145ZM62.7844 54.145V41.6545C62.7844 41.5055 62.7738 41.3873 62.7653 41.2946C62.7199 41.2881 62.6692 41.2707 62.6098 41.2652C61.9927 41.2078 61.0198 41.2741 59.5439 41.54C58.7121 41.6899 57.7851 41.8923 56.7509 42.1387V54.145C56.7509 55.9949 55.2954 57.4945 53.5009 57.495C51.706 57.495 50.2509 55.9952 50.2509 54.145V36.9174C50.2509 35.0672 51.706 33.5674 53.5009 33.5674C54.75 33.5677 55.8326 34.2946 56.3764 35.3602C57.0914 35.2003 57.7743 35.0551 58.4235 34.9381C60.0815 34.6394 61.7216 34.4577 63.1938 34.5946C64.6846 34.7333 66.3941 35.2398 67.672 36.708C68.937 38.1615 69.2844 39.992 69.2844 41.6545V54.145C69.2844 55.9952 67.8293 57.495 66.0344 57.495C64.2401 57.4943 62.7844 55.9947 62.7844 54.145ZM37.7143 25.3298V25.2873C37.7143 23.4371 39.1694 21.9373 40.9643 21.9373C42.7592 21.9373 44.2143 23.4371 44.2143 25.2873V25.3298C44.2143 27.18 42.7592 28.6798 40.9643 28.6798C39.1694 28.6798 37.7143 27.18 37.7143 25.3298Z" fill="black"/>
</g>
<defs>
<clipPath id="clip0_160_22">
<rect width="103" height="93" fill="white"/>
</clipPath>
</defs>
</svg>
