<svg width="103" height="93" viewBox="0 0 103 93" fill="none" xmlns="http://www.w3.org/2000/svg">
<g clip-path="url(#clip0_160_12)">
<path d="M38.9797 6C40.2044 6 41.0582 6.64541 41.3601 6.88984C41.7594 7.21317 42.0873 7.58668 42.3313 7.89092C42.8295 8.51232 43.327 9.29508 43.7913 10.0926C44.7376 11.7184 45.7916 13.8374 46.7588 15.942C47.7314 18.0585 48.6525 20.2402 49.3391 22.0237C49.681 22.9119 49.9794 23.7362 50.196 24.4217C50.3036 24.7621 50.4025 25.1054 50.4785 25.4261C50.538 25.677 50.6467 26.168 50.6467 26.702C50.6467 28.405 50.0331 29.8784 49.3772 31.017C48.7189 32.1596 47.871 33.2161 47.1079 34.1151C46.2437 35.1331 45.6202 35.8006 44.9084 36.6702C44.2484 37.4765 43.8156 38.1053 43.5691 38.6134C43.4493 38.8607 43.2915 39.2901 44.0515 40.5436C44.8668 41.8881 46.249 43.3387 48.0125 45.1564C48.6711 45.8353 50.1585 47.3601 51.8115 48.5097C52.6421 49.0872 53.3597 49.4601 53.9094 49.6252C54.1847 49.7079 54.3357 49.7162 54.3982 49.7136C54.8843 49.4564 55.4829 49.019 56.2454 48.3559C57.0889 47.6222 57.7365 46.9795 58.7241 46.0888C59.5963 45.3022 60.6213 44.4282 61.7297 43.7497C62.8344 43.0736 64.2638 42.4411 65.916 42.4411L66.2937 42.4574C66.6577 42.492 66.9712 42.5684 67.1538 42.6145C67.4649 42.6928 67.7979 42.7948 68.1282 42.9056C68.7933 43.1289 69.5929 43.4365 70.4546 43.7889C72.1849 44.4967 74.3015 45.4461 76.3547 46.4486C78.3965 47.4456 80.4523 48.532 82.0295 49.5075C82.8033 49.9861 83.5627 50.4988 84.1655 51.0124C84.4607 51.2639 84.823 51.6018 85.1367 52.0134C85.3739 52.3247 86 53.2047 86 54.467C85.9998 63.1722 79.7302 69.4477 73.676 71.5278C70.9234 72.4735 68.4636 72.9998 65.7065 73C63.001 73 60.1744 72.4929 56.7087 71.5998C53.2849 70.7175 50.0199 69.7702 46.4985 67.8343C42.9795 65.8997 39.3606 63.0645 34.9998 58.5695C30.639 54.0745 27.8884 50.3443 26.0115 46.7169C24.1334 43.0872 23.2144 39.7218 22.3584 36.1925C21.492 32.6202 21 29.7067 21 26.9179C21.0002 24.0759 21.5108 21.5405 22.4282 18.7032C24.4463 12.4627 30.5344 6.00024 38.9797 6ZM37.7546 12.7851C33.3125 13.3617 29.8322 16.9947 28.595 20.8198C27.8296 23.1865 27.5002 24.9895 27.5 26.9179C27.5 28.901 27.8478 31.1979 28.6648 34.5666C29.4922 37.9779 30.258 40.6861 31.7466 43.5632C33.2366 46.4429 35.5392 49.6513 39.5955 53.8324C43.6517 58.0134 46.7644 60.3869 49.5581 61.9228C52.3493 63.4572 54.9766 64.2465 58.2861 65.0994C61.5543 65.9415 63.7826 66.3 65.7065 66.3C67.5773 66.2998 69.3265 65.9602 71.6226 65.1713C75.3343 63.8957 78.8559 60.3067 79.4143 55.7266C79.2115 55.5881 78.9696 55.4286 78.6843 55.2522C77.3682 54.4382 75.5277 53.4594 73.5713 52.5041C71.6274 51.5551 69.6415 50.6621 68.0583 50.0145C67.2632 49.6893 66.6016 49.4415 66.116 49.2785C65.9784 49.2323 65.8654 49.1969 65.7764 49.1705C65.642 49.2075 65.4065 49.2923 65.0496 49.5107C64.475 49.8624 63.8164 50.3989 63.0056 51.1301C62.31 51.7575 61.2746 52.7454 60.4348 53.4758C59.5339 54.2593 58.4574 55.1132 57.2673 55.7266C55.434 56.6713 53.5479 56.4945 52.0908 56.057C50.6369 55.6202 49.2868 54.8359 48.1775 54.0646C45.9502 52.5159 44.0712 50.5681 43.4167 49.8935C41.8135 48.2409 39.8276 46.2222 38.5386 44.0964C37.1961 41.8824 36.1944 38.8401 37.7578 35.6167C38.3529 34.39 39.1813 33.2805 39.9414 32.3518C40.65 31.4862 41.6084 30.4189 42.217 29.7019C42.9264 28.8662 43.447 28.1873 43.7881 27.5951C44.0011 27.2252 44.0795 26.9807 44.115 26.8426C44.0895 26.7515 44.0576 26.6356 44.0134 26.4958C43.8552 25.9953 43.6148 25.3133 43.2993 24.4937C42.6711 22.8618 41.8048 20.8148 40.884 18.8111C39.9573 16.7945 39.0077 14.8974 38.218 13.5408C38.0458 13.2449 37.8895 12.9949 37.7546 12.7851Z" fill="black"/>
</g>
<defs>
<clipPath id="clip0_160_12">
<rect width="103" height="93" fill="white"/>
</clipPath>
</defs>
</svg>
